<svg width="849" height="491" viewBox="0 0 849 491" fill="none" xmlns="http://www.w3.org/2000/svg">
<circle cx="144" cy="144" r="141.5" fill="#BC97FF" stroke="#BC97FF" stroke-width="5"/>
<path d="M74.2028 158V130H86.3228C88.8295 130 90.9895 130.413 92.8028 131.24C94.6161 132.04 96.0161 133.2 97.0028 134.72C97.9895 136.24 98.4828 138.053 98.4828 140.16C98.4828 142.24 97.9895 144.04 97.0028 145.56C96.0161 147.08 94.6161 148.253 92.8028 149.08C90.9895 149.88 88.8295 150.28 86.3228 150.28H77.8028L80.6828 147.36V158H74.2028ZM80.6828 148.08L77.8028 145H85.9628C87.9628 145 89.4561 144.573 90.4428 143.72C91.4295 142.867 91.9228 141.68 91.9228 140.16C91.9228 138.613 91.4295 137.413 90.4428 136.56C89.4561 135.707 87.9628 135.28 85.9628 135.28H77.8028L80.6828 132.2V148.08ZM103.06 158V136.48H109.3V158H103.06ZM106.18 133.48C105.033 133.48 104.1 133.147 103.38 132.48C102.66 131.813 102.3 130.987 102.3 130C102.3 129.013 102.66 128.187 103.38 127.52C104.1 126.853 105.033 126.52 106.18 126.52C107.326 126.52 108.26 126.84 108.98 127.48C109.7 128.093 110.06 128.893 110.06 129.88C110.06 130.92 109.7 131.787 108.98 132.48C108.286 133.147 107.353 133.48 106.18 133.48ZM123.891 158.32C121.358 158.32 119.384 157.68 117.971 156.4C116.558 155.093 115.851 153.16 115.851 150.6V131.72H122.091V150.52C122.091 151.427 122.331 152.133 122.811 152.64C123.291 153.12 123.944 153.36 124.771 153.36C125.758 153.36 126.598 153.093 127.291 152.56L128.971 156.96C128.331 157.413 127.558 157.76 126.651 158C125.771 158.213 124.851 158.32 123.891 158.32ZM112.531 141.76V136.96H127.451V141.76H112.531ZM140.805 158.32C138.272 158.32 136.298 157.68 134.885 156.4C133.472 155.093 132.765 153.16 132.765 150.6V131.72H139.005V150.52C139.005 151.427 139.245 152.133 139.725 152.64C140.205 153.12 140.858 153.36 141.685 153.36C142.672 153.36 143.512 153.093 144.205 152.56L145.885 156.96C145.245 157.413 144.472 157.76 143.565 158C142.685 158.213 141.765 158.32 140.805 158.32ZM129.445 141.76V136.96H144.365V141.76H129.445ZM158.468 158.32C156.681 158.32 155.081 157.973 153.668 157.28C152.281 156.587 151.201 155.533 150.428 154.12C149.654 152.68 149.268 150.853 149.268 148.64V136.48H155.508V147.72C155.508 149.507 155.881 150.827 156.628 151.68C157.401 152.507 158.481 152.92 159.868 152.92C160.828 152.92 161.681 152.72 162.428 152.32C163.174 151.893 163.761 151.253 164.188 150.4C164.614 149.52 164.828 148.427 164.828 147.12V136.48H171.068V158H165.148V152.08L166.228 153.8C165.508 155.293 164.441 156.427 163.028 157.2C161.641 157.947 160.121 158.32 158.468 158.32ZM176.849 158V136.48H182.809V142.56L181.969 140.8C182.609 139.28 183.635 138.133 185.049 137.36C186.462 136.56 188.182 136.16 190.209 136.16V141.92C189.942 141.893 189.702 141.88 189.489 141.88C189.275 141.853 189.049 141.84 188.809 141.84C187.102 141.84 185.715 142.333 184.649 143.32C183.609 144.28 183.089 145.787 183.089 147.84V158H176.849ZM204.443 158.32C201.989 158.32 199.829 157.84 197.963 156.88C196.123 155.92 194.696 154.613 193.683 152.96C192.669 151.28 192.163 149.373 192.163 147.24C192.163 145.08 192.656 143.173 193.643 141.52C194.656 139.84 196.029 138.533 197.763 137.6C199.496 136.64 201.456 136.16 203.643 136.16C205.749 136.16 207.643 136.613 209.323 137.52C211.029 138.4 212.376 139.68 213.363 141.36C214.349 143.013 214.843 145 214.843 147.32C214.843 147.56 214.829 147.84 214.803 148.16C214.776 148.453 214.749 148.733 214.723 149H197.243V145.36H211.443L209.043 146.44C209.043 145.32 208.816 144.347 208.363 143.52C207.909 142.693 207.283 142.053 206.483 141.6C205.683 141.12 204.749 140.88 203.683 140.88C202.616 140.88 201.669 141.12 200.843 141.6C200.043 142.053 199.416 142.707 198.963 143.56C198.509 144.387 198.283 145.373 198.283 146.52V147.48C198.283 148.653 198.536 149.693 199.043 150.6C199.576 151.48 200.309 152.16 201.243 152.64C202.203 153.093 203.323 153.32 204.603 153.32C205.749 153.32 206.749 153.147 207.603 152.8C208.483 152.453 209.283 151.933 210.003 151.24L213.323 154.84C212.336 155.96 211.096 156.827 209.603 157.44C208.109 158.027 206.389 158.32 204.443 158.32Z" fill="white"/>
<rect x="388.521" y="3.25777" width="234" height="213" transform="rotate(22.137 388.521 3.25777)" fill="#BC97FF" stroke="#BC97FF" stroke-width="5"/>
<path d="M380.933 131.564C378.856 130.725 376.975 129.649 375.291 128.336C373.616 126.999 372.378 125.65 371.575 124.291L375.442 120.589C376.235 121.83 377.281 123.014 378.58 124.143C379.913 125.256 381.359 126.128 382.917 126.757C384.104 127.236 385.101 127.509 385.907 127.576C386.749 127.628 387.428 127.514 387.944 127.234C388.46 126.953 388.828 126.541 389.047 125.997C389.327 125.305 389.274 124.651 388.89 124.035C388.516 123.395 387.934 122.772 387.143 122.165C386.363 121.534 385.474 120.887 384.476 120.225C383.512 119.549 382.556 118.818 381.608 118.032C380.685 117.257 379.888 116.417 379.217 115.514C378.547 114.61 378.107 113.599 377.898 112.479C377.713 111.369 377.9 110.122 378.46 108.737C379.059 107.253 379.998 106.066 381.279 105.173C382.594 104.267 384.2 103.779 386.097 103.711C388.029 103.628 390.218 104.081 392.666 105.07C394.298 105.729 395.826 106.575 397.248 107.61C398.681 108.62 399.849 109.753 400.751 111.009L397.054 114.822C396.122 113.64 395.115 112.644 394.033 111.833C392.961 110.998 391.844 110.346 390.682 109.876C389.52 109.407 388.513 109.159 387.661 109.131C386.81 109.104 386.133 109.247 385.632 109.563C385.141 109.853 384.781 110.283 384.551 110.852C384.281 111.519 384.334 112.173 384.708 112.813C385.092 113.428 385.679 114.039 386.47 114.646C387.26 115.253 388.137 115.895 389.1 116.571C390.088 117.258 391.049 117.976 391.983 118.727C392.941 119.488 393.755 120.32 394.426 121.224C395.096 122.127 395.524 123.134 395.708 124.243C395.918 125.363 395.748 126.603 395.198 127.963C394.609 129.422 393.662 130.593 392.357 131.475C391.052 132.357 389.433 132.839 387.502 132.922C385.595 133.015 383.405 132.562 380.933 131.564ZM405.349 141.251C403.198 140.382 401.457 139.175 400.125 137.631C398.803 136.062 397.974 134.304 397.639 132.356C397.328 130.419 397.572 128.462 398.371 126.483C399.18 124.481 400.364 122.902 401.922 121.749C403.516 120.58 405.328 119.903 407.359 119.716C409.4 119.505 411.496 119.834 413.647 120.703C415.749 121.551 417.399 122.735 418.597 124.254C419.805 125.749 420.451 127.462 420.534 129.393L415.072 129.992C414.932 128.843 414.557 127.886 413.945 127.121C413.358 126.367 412.608 125.805 411.693 125.435C410.704 125.036 409.724 124.899 408.753 125.024C407.782 125.15 406.896 125.526 406.097 126.152C405.323 126.788 404.701 127.688 404.231 128.85C403.762 130.012 403.585 131.091 403.701 132.087C403.841 133.092 404.217 133.977 404.829 134.742C405.44 135.507 406.24 136.089 407.229 136.488C408.144 136.858 409.07 136.987 410.006 136.876C410.977 136.75 411.917 136.31 412.826 135.556L416.325 139.816C414.934 141.124 413.28 141.908 411.363 142.169C409.456 142.405 407.451 142.099 405.349 141.251ZM426.039 149.605C424.382 148.936 423.029 148.016 421.978 146.844C420.952 145.681 420.345 144.3 420.157 142.7C419.979 141.075 420.304 139.237 421.133 137.185L425.686 125.909L431.472 128.246L427.263 138.668C426.594 140.325 426.446 141.688 426.819 142.759C427.227 143.815 428.073 144.603 429.359 145.122C430.249 145.482 431.116 145.616 431.958 145.524C432.81 145.408 433.593 145.035 434.309 144.403C435.034 143.747 435.641 142.813 436.13 141.601L440.114 131.735L445.9 134.072L437.842 154.026L432.353 151.81L434.57 146.32L434.927 148.32C433.7 149.435 432.287 150.086 430.687 150.274C429.121 150.447 427.572 150.224 426.039 149.605ZM443.203 156.191L454.316 128.67L460.102 131.006L448.989 158.527L443.203 156.191ZM463.884 164.887C461.535 163.938 459.945 162.606 459.113 160.89C458.292 159.149 458.361 157.092 459.319 154.718L466.389 137.212L472.175 139.548L465.135 156.98C464.796 157.821 464.754 158.566 465.009 159.216C465.275 159.841 465.791 160.308 466.557 160.617C467.472 160.987 468.351 161.054 469.193 160.819L469.104 165.528C468.34 165.709 467.494 165.741 466.563 165.624C465.667 165.492 464.774 165.246 463.884 164.887ZM459.551 145.278L461.348 140.827L475.183 146.414L473.386 150.865L459.551 145.278ZM480.262 171.501C478.605 170.832 477.251 169.911 476.2 168.739C475.174 167.577 474.567 166.196 474.379 164.596C474.201 162.971 474.527 161.132 475.356 159.08L479.909 147.805L485.695 150.141L481.486 160.563C480.817 162.22 480.669 163.584 481.042 164.655C481.449 165.711 482.296 166.498 483.582 167.018C484.472 167.377 485.338 167.511 486.18 167.42C487.032 167.304 487.816 166.93 488.531 166.298C489.256 165.642 489.864 164.708 490.353 163.497L494.337 153.631L500.123 155.967L492.065 175.922L486.576 173.705L488.792 168.216L489.15 170.215C487.923 171.33 486.51 171.982 484.91 172.169C483.344 172.343 481.795 172.12 480.262 171.501ZM497.426 178.086L505.483 158.132L511.01 160.363L508.733 166.001L508.613 164.054C509.776 162.885 511.157 162.206 512.757 162.018C514.367 161.805 516.112 162.078 517.991 162.837L515.834 168.178C515.597 168.054 515.38 167.951 515.182 167.872C514.994 167.767 514.789 167.67 514.566 167.58C512.984 166.941 511.513 166.879 510.155 167.395C508.831 167.895 507.785 169.098 507.016 171.002L503.212 180.423L497.426 178.086ZM522.892 188.715C520.618 187.796 518.794 186.542 517.423 184.953C516.076 183.374 515.243 181.628 514.922 179.716C514.612 177.779 514.856 175.821 515.654 173.843C516.463 171.84 517.635 170.257 519.168 169.093C520.737 167.915 522.5 167.217 524.457 167.001C526.423 166.76 528.42 167.049 530.448 167.867C532.401 168.656 533.987 169.785 535.206 171.255C536.459 172.71 537.228 174.401 537.514 176.329C537.81 178.231 537.523 180.258 536.655 182.409C536.565 182.632 536.448 182.886 536.303 183.173C536.168 183.435 536.039 183.685 535.914 183.922L519.706 177.377L521.069 174.002L534.236 179.319L531.606 179.421C532.025 178.383 532.18 177.396 532.069 176.459C531.958 175.523 531.617 174.695 531.045 173.975C530.482 173.23 529.707 172.658 528.718 172.259C527.729 171.86 526.761 171.728 525.815 171.863C524.903 171.984 524.078 172.355 523.338 172.977C522.608 173.574 522.028 174.404 521.599 175.467L521.239 176.357C520.8 177.445 520.646 178.504 520.776 179.535C520.941 180.55 521.366 181.455 522.052 182.25C522.772 183.03 523.726 183.659 524.913 184.139C525.976 184.568 526.968 184.782 527.889 184.78C528.835 184.788 529.772 184.605 530.699 184.232L532.429 188.813C531.095 189.482 529.621 189.821 528.007 189.831C526.402 189.816 524.697 189.444 522.892 188.715Z" fill="white"/>
<rect x="459.5" y="363.5" width="387" height="125" fill="#BC97FF" stroke="#BC97FF" stroke-width="5"/>
<path d="M520.22 439.364L520.433 411.365L532.553 411.457C535.059 411.476 537.216 411.906 539.023 412.746C540.83 413.56 542.221 414.731 543.196 416.258C544.172 417.786 544.651 419.603 544.635 421.709C544.619 423.789 544.112 425.585 543.114 427.098C542.116 428.61 540.707 429.773 538.887 430.586C537.068 431.372 534.905 431.755 532.398 431.736L523.878 431.671L526.781 428.773L526.7 439.413L520.22 439.364ZM526.775 429.493L523.919 426.392L532.078 426.454C534.078 426.469 535.575 426.054 536.568 425.208C537.561 424.362 538.064 423.179 538.075 421.659C538.087 420.113 537.603 418.909 536.623 418.048C535.642 417.187 534.152 416.749 532.153 416.734L523.993 416.672L526.896 413.614L526.775 429.493ZM559.323 439.982C556.87 439.963 554.714 439.467 552.854 438.492C551.022 437.518 549.605 436.201 548.604 434.54C547.604 432.852 547.112 430.942 547.128 428.808C547.145 426.649 547.652 424.746 548.652 423.1C549.678 421.428 551.061 420.132 552.801 419.211C554.542 418.265 556.506 417.8 558.692 417.816C560.799 417.832 562.689 418.3 564.362 419.22C566.062 420.112 567.398 421.403 568.372 423.09C569.346 424.751 569.825 426.741 569.807 429.061C569.805 429.301 569.79 429.581 569.76 429.901C569.732 430.194 569.703 430.474 569.674 430.74L552.195 430.607L552.222 426.967L566.422 427.075L564.014 428.137C564.022 427.017 563.803 426.042 563.356 425.212C562.909 424.382 562.287 423.737 561.491 423.278C560.694 422.792 559.763 422.545 558.696 422.536C557.63 422.528 556.681 422.761 555.851 423.235C555.047 423.682 554.416 424.331 553.956 425.18C553.496 426.004 553.262 426.989 553.253 428.135L553.246 429.095C553.237 430.268 553.483 431.31 553.982 432.221C554.509 433.105 555.237 433.79 556.167 434.278C557.123 434.738 558.241 434.973 559.521 434.983C560.668 434.992 561.669 434.826 562.525 434.486C563.408 434.146 564.212 433.632 564.937 432.944L568.23 436.569C567.234 437.682 565.988 438.539 564.49 439.141C562.992 439.716 561.27 439.997 559.323 439.982ZM573.88 439.773L574.044 418.253L580.004 418.299L579.957 424.379L579.131 422.612C579.782 421.097 580.818 419.958 582.237 419.196C583.656 418.407 585.379 418.02 587.406 418.035L587.362 423.795C587.095 423.766 586.856 423.751 586.642 423.749C586.429 423.721 586.203 423.706 585.963 423.704C584.256 423.691 582.866 424.174 581.791 425.153C580.744 426.105 580.213 427.607 580.197 429.66L580.12 439.82L573.88 439.773ZM591.866 439.91L592.033 417.91C592.052 415.484 592.787 413.556 594.238 412.127C595.689 410.671 597.748 409.954 600.414 409.974C601.321 409.981 602.187 410.081 603.012 410.274C603.864 410.467 604.582 410.766 605.165 411.17L603.491 415.678C603.146 415.435 602.761 415.245 602.335 415.109C601.909 414.972 601.457 414.902 600.977 414.898C600.07 414.891 599.361 415.153 598.851 415.682C598.367 416.185 598.121 416.957 598.113 417.997L598.098 419.997L598.237 422.678L598.106 439.957L591.866 439.91ZM588.67 423.645L588.706 418.845L603.626 418.959L603.589 423.759L588.67 423.645ZM616.538 440.418C614.245 440.4 612.208 439.905 610.429 438.931C608.676 437.958 607.286 436.64 606.259 434.979C605.259 433.292 604.766 431.381 604.783 429.248C604.799 427.088 605.32 425.185 606.346 423.54C607.399 421.868 608.809 420.572 610.576 419.652C612.37 418.705 614.414 418.241 616.707 418.258C618.973 418.276 620.996 418.771 622.776 419.745C624.555 420.692 625.945 421.996 626.946 423.657C627.947 425.318 628.439 427.241 628.422 429.428C628.406 431.561 627.885 433.464 626.858 435.136C625.833 436.782 624.423 438.078 622.629 439.024C620.835 439.97 618.805 440.435 616.538 440.418ZM616.577 435.298C617.617 435.306 618.552 435.073 619.382 434.599C620.213 434.126 620.871 433.451 621.358 432.574C621.845 431.671 622.093 430.606 622.102 429.38C622.112 428.126 621.88 427.058 621.407 426.174C620.933 425.291 620.285 424.606 619.462 424.12C618.639 423.633 617.708 423.386 616.668 423.378C615.628 423.37 614.693 423.603 613.862 424.077C613.032 424.551 612.36 425.225 611.847 426.102C611.36 426.978 611.112 428.043 611.103 429.296C611.093 430.523 611.325 431.591 611.798 432.501C612.298 433.385 612.96 434.07 613.783 434.557C614.605 435.043 615.537 435.29 616.577 435.298ZM632.511 440.219L632.675 418.7L638.635 418.745L638.588 424.825L637.762 423.059C638.413 421.544 639.449 420.405 640.868 419.642C642.287 418.853 644.01 418.466 646.037 418.482L645.993 424.242C645.727 424.213 645.487 424.198 645.273 424.196C645.06 424.168 644.834 424.153 644.594 424.151C642.887 424.138 641.497 424.621 640.422 425.599C639.375 426.551 638.844 428.054 638.828 430.107L638.751 440.267L632.511 440.219ZM677.345 418.72C679.052 418.733 680.556 419.092 681.857 419.795C683.185 420.472 684.218 421.52 684.953 422.939C685.716 424.331 686.089 426.121 686.073 428.307L685.979 440.627L679.739 440.579L679.825 429.22C679.839 427.486 679.488 426.204 678.775 425.372C678.061 424.539 677.051 424.118 675.744 424.108C674.838 424.101 674.023 424.309 673.299 424.73C672.576 425.124 672.012 425.733 671.605 426.557C671.199 427.381 670.991 428.432 670.981 429.712L670.899 440.512L664.659 440.464L664.746 429.105C664.759 427.371 664.409 426.089 663.695 425.257C663.008 424.425 662.011 424.004 660.705 423.994C659.798 423.987 658.983 424.194 658.26 424.615C657.537 425.01 656.972 425.619 656.566 426.442C656.16 427.266 655.952 428.318 655.942 429.598L655.86 440.397L649.62 440.35L649.784 418.83L655.744 418.876L655.699 424.756L654.592 423.027C655.35 421.566 656.411 420.468 657.777 419.731C659.17 418.969 660.746 418.594 662.506 418.607C664.479 418.622 666.195 419.142 667.654 420.167C669.14 421.165 670.115 422.692 670.579 424.749L668.384 424.132C669.117 422.458 670.273 421.133 671.854 420.159C673.462 419.184 675.292 418.705 677.345 418.72ZM704.771 440.77L704.803 436.57L704.41 435.647L704.468 428.127C704.478 426.794 704.072 425.751 703.251 424.998C702.457 424.245 701.22 423.862 699.54 423.85C698.393 423.841 697.259 424.019 696.136 424.384C695.04 424.722 694.103 425.195 693.325 425.802L691.118 421.425C692.298 420.608 693.716 419.979 695.373 419.538C697.029 419.097 698.711 418.883 700.418 418.896C703.698 418.921 706.238 419.714 708.04 421.274C709.841 422.835 710.73 425.255 710.705 428.535L710.611 440.815L704.771 440.77ZM698.209 441.04C696.529 441.027 695.091 440.736 693.896 440.167C692.7 439.571 691.786 438.778 691.154 437.786C690.521 436.795 690.21 435.686 690.219 434.459C690.229 433.179 690.544 432.061 691.164 431.106C691.812 430.151 692.817 429.412 694.181 428.889C695.546 428.339 697.321 428.073 699.508 428.09L705.228 428.133L705.2 431.773L700.16 431.735C698.693 431.723 697.678 431.956 697.115 432.431C696.578 432.907 696.306 433.505 696.301 434.225C696.295 435.025 696.597 435.668 697.206 436.152C697.843 436.61 698.708 436.844 699.801 436.852C700.841 436.86 701.776 436.627 702.606 436.153C703.437 435.653 704.042 434.924 704.423 433.967L705.361 436.854C704.897 438.238 704.063 439.285 702.857 439.995C701.652 440.706 700.102 441.054 698.209 441.04ZM729.504 419.118C731.211 419.131 732.728 419.489 734.056 420.193C735.411 420.87 736.47 421.918 737.233 423.337C737.995 424.729 738.368 426.519 738.352 428.706L738.258 441.025L732.018 440.978L732.105 429.618C732.118 427.885 731.741 426.602 730.974 425.769C730.233 424.937 729.17 424.515 727.783 424.505C726.797 424.497 725.902 424.704 725.099 425.124C724.322 425.519 723.704 426.141 723.244 426.99C722.811 427.84 722.589 428.932 722.579 430.265L722.498 440.905L716.258 440.858L716.422 419.338L722.382 419.384L722.337 425.343L721.231 423.535C722.015 422.101 723.13 421.003 724.576 420.24C726.022 419.478 727.664 419.104 729.504 419.118ZM754.467 441.469C752.147 441.451 750.084 440.969 748.278 440.022C746.472 439.048 745.056 437.717 744.029 436.029C743.028 434.341 742.536 432.431 742.552 430.298C742.569 428.138 743.09 426.235 744.116 424.589C745.168 422.917 746.605 421.622 748.425 420.702C750.246 419.756 752.316 419.292 754.636 419.309C756.903 419.327 758.872 419.822 760.545 420.794C762.218 421.741 763.448 423.097 764.234 424.863L759.375 427.426C758.822 426.408 758.121 425.656 757.272 425.17C756.449 424.683 755.544 424.436 754.557 424.429C753.491 424.421 752.529 424.653 751.672 425.127C750.815 425.6 750.13 426.275 749.616 427.151C749.13 428.028 748.882 429.092 748.872 430.346C748.862 431.599 749.094 432.668 749.568 433.551C750.067 434.435 750.742 435.12 751.592 435.607C752.442 436.093 753.4 436.34 754.466 436.349C755.453 436.356 756.361 436.136 757.191 435.689C758.048 435.216 758.761 434.461 759.329 433.426L764.149 436.102C763.335 437.83 762.085 439.167 760.398 440.114C758.711 441.034 756.734 441.486 754.467 441.469ZM778.106 441.649C775.653 441.63 773.497 441.134 771.637 440.16C769.805 439.186 768.388 437.868 767.387 436.207C766.387 434.519 765.895 432.609 765.911 430.476C765.927 428.316 766.435 426.413 767.434 424.767C768.46 423.095 769.844 421.799 771.584 420.879C773.325 419.932 775.288 419.467 777.475 419.483C779.582 419.499 781.471 419.967 783.144 420.887C784.844 421.78 786.181 423.07 787.155 424.757C788.129 426.418 788.607 428.408 788.59 430.728C788.588 430.968 788.572 431.248 788.543 431.568C788.514 431.861 788.485 432.141 788.457 432.407L770.977 432.274L771.005 428.634L785.205 428.743L782.796 429.804C782.805 428.684 782.586 427.709 782.139 426.879C781.692 426.049 781.07 425.404 780.273 424.945C779.477 424.459 778.546 424.212 777.479 424.204C776.412 424.195 775.464 424.428 774.634 424.902C773.83 425.349 773.198 425.998 772.739 426.848C772.279 427.671 772.045 428.656 772.036 429.802L772.029 430.762C772.02 431.936 772.265 432.977 772.765 433.888C773.292 434.772 774.02 435.458 774.949 435.945C775.906 436.405 777.024 436.64 778.304 436.65C779.451 436.659 780.452 436.493 781.308 436.153C782.191 435.813 782.995 435.299 783.72 434.611L787.012 438.237C786.017 439.349 784.771 440.206 783.273 440.808C781.775 441.383 780.053 441.664 778.106 441.649Z" fill="white"/>
<path d="M824.386 153.156C844.271 211.956 817.812 273.489 766.044 290.997C714.275 308.505 655.899 275.662 636.013 216.863C616.128 158.063 642.587 96.5296 694.355 79.022C746.124 61.5144 804.5 94.357 824.386 153.156Z" fill="#BC97FF" stroke="#BC97FF" stroke-width="5"/>
<path d="M680.158 199.46C677.918 199.443 675.773 199.133 673.724 198.531C671.676 197.902 670.029 197.102 668.783 196.133L671.02 191.27C672.213 192.132 673.621 192.85 675.243 193.422C676.893 193.968 678.557 194.247 680.237 194.26C681.517 194.27 682.545 194.158 683.32 193.924C684.122 193.663 684.711 193.307 685.088 192.857C685.465 192.407 685.655 191.888 685.66 191.301C685.666 190.555 685.377 189.966 684.793 189.535C684.21 189.077 683.44 188.711 682.482 188.437C681.524 188.136 680.459 187.862 679.288 187.613C678.143 187.337 676.986 187.008 675.815 186.626C674.671 186.244 673.622 185.756 672.666 185.162C671.711 184.568 670.93 183.789 670.324 182.824C669.745 181.86 669.461 180.631 669.472 179.138C669.484 177.538 669.922 176.088 670.785 174.787C671.675 173.461 672.99 172.418 674.729 171.657C676.495 170.871 678.698 170.488 681.338 170.508C683.098 170.521 684.83 170.748 686.533 171.187C688.237 171.6 689.739 172.225 691.039 173.062L689.002 177.966C687.701 177.21 686.398 176.653 685.094 176.297C683.79 175.913 682.512 175.717 681.259 175.707C680.005 175.698 678.977 175.837 678.175 176.124C677.373 176.411 676.797 176.793 676.446 177.271C676.096 177.721 675.919 178.253 675.914 178.867C675.909 179.587 676.198 180.176 676.781 180.633C677.364 181.064 678.135 181.417 679.093 181.691C680.051 181.965 681.102 182.24 682.247 182.515C683.418 182.791 684.576 183.106 685.72 183.462C686.89 183.817 687.953 184.292 688.909 184.886C689.864 185.48 690.632 186.259 691.211 187.223C691.817 188.188 692.114 189.404 692.103 190.87C692.091 192.444 691.64 193.88 690.75 195.18C689.861 196.48 688.533 197.523 686.766 198.31C685.027 199.097 682.824 199.48 680.158 199.46ZM706.426 199.5C704.106 199.482 702.043 199 700.237 198.053C698.431 197.079 697.014 195.748 695.987 194.06C694.986 192.372 694.494 190.462 694.511 188.329C694.527 186.169 695.048 184.266 696.074 182.62C697.127 180.948 698.563 179.653 700.384 178.733C702.204 177.787 704.275 177.323 706.595 177.34C708.861 177.358 710.831 177.853 712.503 178.825C714.176 179.772 715.406 181.128 716.193 182.894L711.333 185.457C710.781 184.439 710.08 183.687 709.23 183.201C708.407 182.714 707.502 182.467 706.516 182.46C705.449 182.452 704.487 182.685 703.63 183.158C702.773 183.631 702.088 184.306 701.575 185.182C701.088 186.059 700.84 187.124 700.83 188.377C700.821 189.63 701.053 190.699 701.526 191.582C702.026 192.466 702.701 193.151 703.55 193.638C704.4 194.124 705.358 194.371 706.425 194.38C707.411 194.387 708.32 194.167 709.15 193.72C710.007 193.247 710.719 192.492 711.287 191.457L716.107 194.133C715.294 195.861 714.044 197.198 712.356 198.145C710.669 199.065 708.692 199.517 706.426 199.5ZM719.661 199.281L719.825 177.761L725.784 177.807L725.738 183.886L724.912 182.12C725.563 180.605 726.599 179.466 728.018 178.704C729.437 177.914 731.16 177.528 733.187 177.543L733.143 183.303C732.876 183.274 732.636 183.259 732.423 183.257C732.21 183.229 731.983 183.214 731.743 183.212C730.037 183.199 728.646 183.682 727.572 184.66C726.525 185.613 725.994 187.115 725.978 189.168L725.9 199.328L719.661 199.281ZM736.77 199.411L736.934 177.892L743.173 177.939L743.009 199.459L736.77 199.411ZM740.076 174.915C738.93 174.907 737.999 174.566 737.284 173.894C736.569 173.222 736.215 172.393 736.223 171.406C736.23 170.419 736.597 169.595 737.322 168.934C738.047 168.273 738.983 167.947 740.129 167.956C741.276 167.964 742.207 168.291 742.922 168.937C743.637 169.556 743.991 170.358 743.984 171.345C743.976 172.385 743.609 173.249 742.884 173.937C742.185 174.598 741.25 174.924 740.076 174.915ZM757.598 199.89C755.064 199.87 753.096 199.215 751.693 197.925C750.289 196.607 749.597 194.669 749.617 192.109L749.761 173.229L756 173.277L755.857 192.076C755.85 192.983 756.085 193.691 756.561 194.202C757.037 194.685 757.689 194.93 758.516 194.937C759.502 194.944 760.344 194.684 761.042 194.156L762.688 198.568C762.045 199.017 761.269 199.358 760.36 199.591C759.478 199.797 758.558 199.897 757.598 199.89ZM746.364 183.244L746.401 178.444L761.32 178.557L761.284 183.357L746.364 183.244ZM774.511 200.019C771.978 199.999 770.01 199.344 768.606 198.054C767.203 196.736 766.511 194.797 766.53 192.238L766.674 173.358L772.914 173.406L772.771 192.205C772.764 193.112 772.998 193.82 773.475 194.331C773.951 194.814 774.602 195.059 775.429 195.065C776.416 195.073 777.258 194.813 777.955 194.285L779.602 198.697C778.958 199.146 778.182 199.487 777.274 199.72C776.392 199.926 775.471 200.026 774.511 200.019ZM763.278 183.372L763.314 178.573L778.234 178.686L778.197 183.486L763.278 183.372ZM783.096 199.764L783.26 178.245L789.5 178.292L789.336 199.812L783.096 199.764ZM786.403 175.268C785.256 175.26 784.326 174.919 783.611 174.247C782.896 173.575 782.542 172.746 782.55 171.759C782.557 170.772 782.923 169.948 783.649 169.287C784.374 168.626 785.309 168.3 786.456 168.309C787.603 168.317 788.534 168.645 789.249 169.29C789.964 169.909 790.318 170.712 790.31 171.698C790.302 172.738 789.936 173.602 789.211 174.29C788.512 174.951 787.576 175.277 786.403 175.268Z" fill="white"/>
<path d="M194.042 448L304.5 253.071L414.958 448H194.042Z" fill="#BC97FF" stroke="#BC97FF" stroke-width="5"/>
<path d="M277.759 414.352L284.052 402.476L288.647 404.911L282.353 416.787L277.759 414.352ZM291.591 421.139L288.557 426.865L263.816 413.753L273.724 395.057L278.319 397.492L271.445 410.463L291.591 421.139ZM305.153 396.231C304.079 398.257 302.7 399.835 301.015 400.964C299.342 402.07 297.532 402.695 295.584 402.84C293.626 402.948 291.704 402.503 289.819 401.504C287.91 400.493 286.463 399.152 285.476 397.483C284.479 395.777 283.98 393.928 283.979 391.936C283.967 389.908 284.499 387.881 285.572 385.854C286.634 383.852 288.007 382.286 289.692 381.156C291.353 380.015 293.151 379.383 295.087 379.262C297.022 379.141 298.956 379.592 300.888 380.616C302.773 381.615 304.221 382.956 305.23 384.638C306.217 386.307 306.716 388.156 306.727 390.184C306.739 392.213 306.214 394.228 305.153 396.231ZM300.629 393.833C301.116 392.914 301.341 391.977 301.304 391.022C301.267 390.067 300.972 389.171 300.419 388.335C299.843 387.486 299.013 386.775 297.929 386.201C296.821 385.614 295.766 385.326 294.764 385.338C293.762 385.35 292.855 385.609 292.044 386.115C291.233 386.621 290.583 387.333 290.096 388.252C289.609 389.171 289.384 390.108 289.422 391.063C289.459 392.018 289.747 392.926 290.288 393.785C290.84 394.622 291.67 395.333 292.778 395.92C293.862 396.494 294.917 396.782 295.943 396.782C296.957 396.747 297.87 396.476 298.682 395.97C299.493 395.465 300.142 394.752 300.629 393.833ZM316.752 374.343C315.566 376.582 314.076 378.026 312.283 378.675C310.467 379.312 308.428 379.031 306.166 377.833L289.484 368.992L292.406 363.478L309.017 372.281C309.818 372.706 310.555 372.825 311.227 372.638C311.876 372.439 312.394 371.974 312.781 371.243C313.243 370.371 313.401 369.504 313.255 368.642L317.929 369.218C318.03 369.996 317.974 370.841 317.762 371.755C317.538 372.632 317.202 373.495 316.752 374.343ZM296.8 376.627L292.559 374.379L299.545 361.196L303.787 363.444L296.8 376.627ZM325.255 358.298C324.181 360.325 322.802 361.903 321.117 363.032C319.444 364.137 317.634 364.763 315.686 364.907C313.728 365.016 311.806 364.571 309.921 363.572C308.012 362.561 306.565 361.22 305.578 359.55C304.581 357.845 304.082 355.996 304.081 354.004C304.069 351.976 304.601 349.948 305.674 347.922C306.736 345.919 308.109 344.353 309.794 343.224C311.455 342.082 313.253 341.451 315.189 341.33C317.124 341.209 319.058 341.66 320.99 342.684C322.875 343.683 324.323 345.023 325.332 346.705C326.319 348.375 326.818 350.224 326.829 352.252C326.841 354.28 326.316 356.296 325.255 358.298ZM320.731 355.901C321.218 354.982 321.443 354.045 321.406 353.09C321.369 352.135 321.074 351.239 320.521 350.403C319.945 349.554 319.115 348.842 318.031 348.268C316.923 347.681 315.868 347.394 314.866 347.406C313.864 347.418 312.957 347.677 312.146 348.182C311.335 348.688 310.685 349.4 310.198 350.319C309.711 351.238 309.486 352.175 309.524 353.131C309.561 354.086 309.849 354.993 310.39 355.853C310.942 356.689 311.772 357.401 312.88 357.988C313.964 358.562 315.019 358.849 316.045 358.85C317.059 358.814 317.972 358.544 318.784 358.038C319.595 357.532 320.244 356.82 320.731 355.901Z" fill="white"/>
</svg>
