<svg width="355" height="620" viewBox="0 0 355 620" fill="none" xmlns="http://www.w3.org/2000/svg">
<circle cx="102" cy="102" r="99.5" fill="#BC97FF" stroke="#BC97FF" stroke-width="5"/>
<path d="M50.0271 113V92H59.1171C60.9971 92 62.6171 92.31 63.9771 92.93C65.3371 93.53 66.3871 94.4 67.1271 95.54C67.8671 96.68 68.2371 98.04 68.2371 99.62C68.2371 101.18 67.8671 102.53 67.1271 103.67C66.3871 104.81 65.3371 105.69 63.9771 106.31C62.6171 106.91 60.9971 107.21 59.1171 107.21H52.7271L54.8871 105.02V113H50.0271ZM54.8871 105.56L52.7271 103.25H58.8471C60.3471 103.25 61.4671 102.93 62.2071 102.29C62.9471 101.65 63.3171 100.76 63.3171 99.62C63.3171 98.46 62.9471 97.56 62.2071 96.92C61.4671 96.28 60.3471 95.96 58.8471 95.96H52.7271L54.8871 93.65V105.56ZM71.6698 113V96.86H76.3498V113H71.6698ZM74.0098 94.61C73.1498 94.61 72.4498 94.36 71.9098 93.86C71.3698 93.36 71.0998 92.74 71.0998 92C71.0998 91.26 71.3698 90.64 71.9098 90.14C72.4498 89.64 73.1498 89.39 74.0098 89.39C74.8698 89.39 75.5698 89.63 76.1098 90.11C76.6498 90.57 76.9198 91.17 76.9198 91.91C76.9198 92.69 76.6498 93.34 76.1098 93.86C75.5898 94.36 74.8898 94.61 74.0098 94.61ZM87.2932 113.24C85.3932 113.24 83.9132 112.76 82.8532 111.8C81.7932 110.82 81.2632 109.37 81.2632 107.45V93.29H85.9432V107.39C85.9432 108.07 86.1232 108.6 86.4832 108.98C86.8432 109.34 87.3332 109.52 87.9532 109.52C88.6932 109.52 89.3232 109.32 89.8432 108.92L91.1032 112.22C90.6232 112.56 90.0432 112.82 89.3632 113C88.7032 113.16 88.0132 113.24 87.2932 113.24ZM78.7732 100.82V97.22H89.9632V100.82H78.7732ZM99.9788 113.24C98.0788 113.24 96.5988 112.76 95.5388 111.8C94.4788 110.82 93.9488 109.37 93.9488 107.45V93.29H98.6288V107.39C98.6288 108.07 98.8088 108.6 99.1688 108.98C99.5288 109.34 100.019 109.52 100.639 109.52C101.379 109.52 102.009 109.32 102.529 108.92L103.789 112.22C103.309 112.56 102.729 112.82 102.049 113C101.389 113.16 100.699 113.24 99.9788 113.24ZM91.4588 100.82V97.22H102.649V100.82H91.4588ZM113.226 113.24C111.886 113.24 110.686 112.98 109.626 112.46C108.586 111.94 107.776 111.15 107.196 110.09C106.616 109.01 106.326 107.64 106.326 105.98V96.86H111.006V105.29C111.006 106.63 111.286 107.62 111.846 108.26C112.426 108.88 113.236 109.19 114.276 109.19C114.996 109.19 115.636 109.04 116.196 108.74C116.756 108.42 117.196 107.94 117.516 107.3C117.836 106.64 117.996 105.82 117.996 104.84V96.86H122.676V113H118.236V108.56L119.046 109.85C118.506 110.97 117.706 111.82 116.646 112.4C115.606 112.96 114.466 113.24 113.226 113.24ZM127.012 113V96.86H131.482V101.42L130.852 100.1C131.332 98.96 132.102 98.1 133.162 97.52C134.222 96.92 135.512 96.62 137.032 96.62V100.94C136.832 100.92 136.652 100.91 136.492 100.91C136.332 100.89 136.162 100.88 135.982 100.88C134.702 100.88 133.662 101.25 132.862 101.99C132.082 102.71 131.692 103.84 131.692 105.38V113H127.012ZM147.707 113.24C145.867 113.24 144.247 112.88 142.847 112.16C141.467 111.44 140.397 110.46 139.637 109.22C138.877 107.96 138.497 106.53 138.497 104.93C138.497 103.31 138.867 101.88 139.607 100.64C140.367 99.38 141.397 98.4 142.697 97.7C143.997 96.98 145.467 96.62 147.107 96.62C148.687 96.62 150.107 96.96 151.367 97.64C152.647 98.3 153.657 99.26 154.397 100.52C155.137 101.76 155.507 103.25 155.507 104.99C155.507 105.17 155.497 105.38 155.477 105.62C155.457 105.84 155.437 106.05 155.417 106.25H142.307V103.52H152.957L151.157 104.33C151.157 103.49 150.987 102.76 150.647 102.14C150.307 101.52 149.837 101.04 149.237 100.7C148.637 100.34 147.937 100.16 147.137 100.16C146.337 100.16 145.627 100.34 145.007 100.7C144.407 101.04 143.937 101.53 143.597 102.17C143.257 102.79 143.087 103.53 143.087 104.39V105.11C143.087 105.99 143.277 106.77 143.657 107.45C144.057 108.11 144.607 108.62 145.307 108.98C146.027 109.32 146.867 109.49 147.827 109.49C148.687 109.49 149.437 109.36 150.077 109.1C150.737 108.84 151.337 108.45 151.877 107.93L154.367 110.63C153.627 111.47 152.697 112.12 151.577 112.58C150.457 113.02 149.167 113.24 147.707 113.24Z" fill="white"/>
<rect x="222.891" y="137.638" width="141.853" height="128.95" transform="rotate(24.7716 222.891 137.638)" fill="#BC97FF" stroke="#BC97FF" stroke-width="5"/>
<path d="M202.752 215.762C201.194 215.133 199.784 214.326 198.521 213.342C197.265 212.339 196.336 211.327 195.734 210.308L198.634 207.532C199.229 208.462 200.014 209.35 200.988 210.197C201.988 211.032 203.072 211.685 204.24 212.157C205.13 212.517 205.878 212.722 206.483 212.772C207.115 212.811 207.624 212.725 208.011 212.515C208.398 212.305 208.673 211.995 208.838 211.587C209.048 211.068 209.009 210.578 208.72 210.116C208.44 209.636 208.003 209.169 207.41 208.714C206.825 208.24 206.158 207.755 205.409 207.259C204.687 206.751 203.97 206.203 203.259 205.614C202.566 205.032 201.969 204.402 201.466 203.725C200.963 203.047 200.633 202.289 200.476 201.449C200.338 200.616 200.478 199.681 200.897 198.642C201.347 197.53 202.052 196.639 203.012 195.97C203.998 195.29 205.203 194.924 206.626 194.873C208.074 194.811 209.716 195.15 211.552 195.892C212.776 196.386 213.922 197.021 214.989 197.797C216.064 198.555 216.939 199.404 217.616 200.346L214.843 203.206C214.144 202.32 213.389 201.573 212.578 200.965C211.774 200.338 210.936 199.849 210.064 199.497C209.193 199.145 208.438 198.959 207.799 198.938C207.16 198.917 206.653 199.025 206.277 199.262C205.908 199.48 205.638 199.802 205.466 200.228C205.264 200.729 205.303 201.219 205.584 201.699C205.872 202.161 206.312 202.619 206.905 203.074C207.498 203.529 208.155 204.011 208.878 204.518C209.619 205.033 210.34 205.572 211.04 206.135C211.758 206.706 212.369 207.33 212.872 208.007C213.375 208.685 213.696 209.44 213.834 210.272C213.991 211.112 213.863 212.042 213.452 213.062C213.01 214.156 212.299 215.034 211.32 215.696C210.341 216.357 209.128 216.719 207.679 216.781C206.249 216.851 204.607 216.511 202.752 215.762ZM221.065 223.028C219.451 222.376 218.145 221.471 217.146 220.313C216.155 219.136 215.533 217.817 215.282 216.357C215.049 214.904 215.232 213.436 215.831 211.952C216.438 210.45 217.325 209.266 218.494 208.401C219.689 207.525 221.049 207.017 222.572 206.877C224.102 206.719 225.674 206.965 227.288 207.617C228.864 208.253 230.102 209.141 231 210.28C231.907 211.401 232.391 212.686 232.453 214.135L228.357 214.584C228.252 213.722 227.97 213.004 227.512 212.431C227.072 211.865 226.508 211.443 225.822 211.166C225.08 210.866 224.345 210.764 223.617 210.858C222.889 210.952 222.225 211.234 221.626 211.704C221.045 212.181 220.578 212.855 220.226 213.727C219.874 214.599 219.742 215.408 219.828 216.155C219.934 216.909 220.215 217.573 220.674 218.146C221.133 218.72 221.733 219.156 222.475 219.456C223.161 219.733 223.855 219.83 224.557 219.747C225.286 219.652 225.99 219.322 226.672 218.756L229.297 221.951C228.253 222.932 227.013 223.521 225.575 223.716C224.145 223.894 222.641 223.664 221.065 223.028ZM236.582 229.293C235.34 228.792 234.324 228.101 233.536 227.222C232.766 226.351 232.311 225.315 232.17 224.115C232.037 222.896 232.281 221.517 232.902 219.978L236.317 211.521L240.657 213.274L237.5 221.091C236.999 222.333 236.888 223.356 237.167 224.159C237.473 224.951 238.108 225.542 239.072 225.931C239.74 226.201 240.389 226.301 241.021 226.233C241.66 226.146 242.248 225.866 242.784 225.392C243.328 224.9 243.783 224.199 244.15 223.291L247.138 215.891L251.478 217.643L245.435 232.609L241.317 230.947L242.98 226.83L243.248 228.329C242.328 229.166 241.268 229.654 240.068 229.795C238.894 229.925 237.732 229.758 236.582 229.293ZM249.455 234.233L257.79 213.592L262.129 215.344L253.794 235.985L249.455 234.233ZM264.966 240.755C263.204 240.043 262.011 239.044 261.388 237.757C260.772 236.452 260.823 234.909 261.542 233.128L266.844 219.998L271.184 221.751L265.904 234.825C265.65 235.456 265.618 236.014 265.81 236.502C266.009 236.97 266.396 237.32 266.971 237.553C267.657 237.83 268.316 237.88 268.948 237.704L268.88 241.236C268.308 241.371 267.673 241.395 266.975 241.307C266.303 241.209 265.633 241.024 264.966 240.755ZM261.716 226.048L263.064 222.71L273.44 226.9L272.092 230.238L261.716 226.048ZM277.249 245.715C276.007 245.213 274.991 244.523 274.203 243.644C273.433 242.772 272.978 241.736 272.837 240.536C272.704 239.318 272.948 237.939 273.569 236.4L276.984 227.943L281.324 229.695L278.167 237.512C277.666 238.755 277.555 239.777 277.834 240.581C278.14 241.373 278.775 241.963 279.739 242.353C280.407 242.622 281.056 242.723 281.688 242.654C282.327 242.567 282.915 242.287 283.451 241.813C283.995 241.321 284.45 240.621 284.817 239.712L287.805 232.313L292.145 234.065L286.102 249.031L281.985 247.368L283.647 243.251L283.915 244.751C282.995 245.587 281.935 246.076 280.735 246.217C279.561 246.347 278.399 246.179 277.249 245.715ZM290.122 250.654L296.165 235.688L300.31 237.362L298.603 241.59L298.513 240.13C299.385 239.253 300.421 238.744 301.621 238.603C302.828 238.444 304.137 238.648 305.546 239.218L303.929 243.223C303.751 243.13 303.587 243.053 303.439 242.993C303.298 242.915 303.144 242.842 302.977 242.775C301.791 242.295 300.688 242.249 299.669 242.636C298.676 243.011 297.891 243.913 297.315 245.341L294.461 252.407L290.122 250.654ZM309.222 258.626C307.516 257.937 306.149 256.996 305.12 255.805C304.11 254.62 303.485 253.311 303.244 251.877C303.011 250.424 303.194 248.955 303.794 247.472C304.4 245.97 305.279 244.782 306.429 243.91C307.606 243.026 308.928 242.503 310.395 242.34C311.87 242.16 313.368 242.376 314.889 242.99C316.354 243.582 317.543 244.429 318.457 245.531C319.397 246.622 319.974 247.891 320.188 249.336C320.41 250.763 320.195 252.283 319.544 253.896C319.476 254.063 319.388 254.254 319.28 254.469C319.179 254.666 319.082 254.853 318.988 255.031L306.832 250.122L307.854 247.591L317.73 251.579L315.757 251.656C316.072 250.877 316.187 250.136 316.104 249.434C316.021 248.732 315.765 248.111 315.336 247.571C314.915 247.012 314.333 246.583 313.591 246.284C312.849 245.984 312.123 245.885 311.414 245.987C310.73 246.078 310.111 246.356 309.556 246.822C309.009 247.27 308.574 247.892 308.252 248.69L307.982 249.357C307.653 250.173 307.537 250.968 307.635 251.741C307.758 252.502 308.077 253.181 308.592 253.777C309.132 254.362 309.847 254.834 310.737 255.194C311.535 255.516 312.279 255.676 312.97 255.674C313.679 255.68 314.381 255.543 315.077 255.263L316.375 258.699C315.374 259.201 314.268 259.456 313.058 259.463C311.854 259.451 310.576 259.172 309.222 258.626Z" fill="white"/>
<path d="M351.5 510.837V617.269H2.5V508.865L351.5 510.837Z" fill="#BC97FF" stroke="#BC97FF" stroke-width="5"/>
<path d="M77.916 575.79L78.0816 554.791L87.1713 554.858C89.0513 554.871 90.6688 555.193 92.0239 555.823C93.3791 556.433 94.4222 557.311 95.1532 558.456C95.8842 559.602 96.2435 560.965 96.231 562.544C96.2187 564.104 95.8381 565.452 95.0891 566.586C94.3401 567.721 93.2832 568.593 91.9183 569.203C90.5537 569.793 88.9313 570.081 87.0514 570.067L80.6616 570.02L82.8388 567.846L82.7758 575.826L77.916 575.79ZM82.8345 568.386L80.6928 566.06L86.8126 566.105C88.3126 566.116 89.4351 565.805 90.1801 565.17C90.9251 564.535 91.3021 563.648 91.3111 562.508C91.3203 561.348 90.9574 560.446 90.2225 559.8C89.4875 559.155 88.3701 558.827 86.8701 558.815L80.7503 558.77L82.9284 556.476L82.8345 568.386ZM107.244 576.246C105.404 576.232 103.787 575.86 102.392 575.13C101.018 574.4 99.9558 573.412 99.2056 572.167C98.4555 570.901 98.0868 569.468 98.0995 567.868C98.1122 566.248 98.4935 564.821 99.2433 563.587C100.013 562.332 101.051 561.36 102.356 560.67C103.662 559.959 105.135 559.61 106.775 559.622C108.355 559.634 109.772 559.984 111.027 560.673C112.301 561.343 113.304 562.31 114.034 563.576C114.764 564.821 115.122 566.314 115.109 568.054C115.107 568.234 115.095 568.444 115.074 568.683C115.052 568.903 115.03 569.113 115.009 569.313L101.899 569.216L101.92 566.486L112.57 566.565L110.764 567.362C110.77 566.522 110.606 565.79 110.271 565.168C109.936 564.545 109.47 564.062 108.873 563.718C108.275 563.353 107.577 563.168 106.777 563.162C105.977 563.156 105.265 563.331 104.643 563.686C104.04 564.022 103.566 564.509 103.221 565.146C102.876 565.763 102.7 566.502 102.694 567.362L102.688 568.082C102.681 568.962 102.865 569.744 103.239 570.426C103.634 571.089 104.18 571.603 104.877 571.968C105.595 572.314 106.433 572.49 107.393 572.497C108.253 572.503 109.004 572.379 109.646 572.124C110.308 571.868 110.911 571.483 111.455 570.967L113.924 573.685C113.177 574.52 112.242 575.163 111.119 575.614C109.995 576.046 108.704 576.257 107.244 576.246ZM118.161 576.086L118.288 559.947L122.758 559.98L122.722 564.54L122.103 563.215C122.592 562.079 123.368 561.224 124.433 560.652C125.498 560.06 126.79 559.769 128.31 559.781L128.276 564.1C128.076 564.079 127.896 564.068 127.736 564.066C127.576 564.045 127.406 564.034 127.226 564.033C125.946 564.023 124.904 564.386 124.098 565.12C123.312 565.834 122.913 566.961 122.901 568.501L122.841 576.121L118.161 576.086ZM131.651 576.186L131.781 559.686C131.795 557.866 132.347 556.42 133.435 555.348C134.524 554.256 136.068 553.718 138.068 553.732C138.748 553.737 139.397 553.812 140.016 553.957C140.655 554.101 141.193 554.325 141.631 554.628L140.374 558.009C140.116 557.827 139.827 557.685 139.508 557.583C139.188 557.481 138.849 557.428 138.489 557.425C137.809 557.42 137.277 557.617 136.894 558.014C136.531 558.391 136.347 558.97 136.34 559.75L136.329 561.25L136.433 563.26L136.33 576.22L131.651 576.186ZM129.257 563.988L129.285 560.388L140.475 560.47L140.446 564.07L129.257 563.988ZM150.155 576.562C148.435 576.549 146.908 576.178 145.573 575.448C144.259 574.718 143.217 573.731 142.447 572.485C141.697 571.219 141.328 569.787 141.34 568.187C141.353 566.567 141.745 565.14 142.514 563.905C143.304 562.651 144.362 561.679 145.687 560.989C147.033 560.278 148.566 559.93 150.286 559.942C151.986 559.955 153.503 560.326 154.837 561.056C156.172 561.766 157.214 562.743 157.964 563.989C158.714 565.235 159.083 566.677 159.07 568.317C159.057 569.917 158.666 571.344 157.896 572.599C157.126 573.833 156.069 574.805 154.723 575.515C153.377 576.226 151.855 576.574 150.155 576.562ZM150.185 572.722C150.965 572.728 151.666 572.553 152.289 572.197C152.912 571.842 153.406 571.336 153.771 570.678C154.137 570.001 154.323 569.202 154.33 568.282C154.338 567.342 154.164 566.541 153.809 565.878C153.454 565.216 152.968 564.702 152.351 564.338C151.734 563.973 151.035 563.788 150.255 563.782C149.476 563.776 148.774 563.951 148.151 564.307C147.528 564.662 147.024 565.168 146.639 565.826C146.274 566.483 146.088 567.282 146.08 568.222C146.073 569.142 146.247 569.943 146.601 570.626C146.976 571.288 147.472 571.802 148.089 572.167C148.706 572.531 149.405 572.716 150.185 572.722ZM162.134 576.41L162.262 560.271L166.732 560.303L166.696 564.863L166.076 563.539C166.565 562.402 167.342 561.548 168.406 560.976C169.471 560.384 170.763 560.093 172.283 560.104L172.249 564.424C172.049 564.403 171.87 564.391 171.71 564.39C171.55 564.369 171.38 564.358 171.2 564.356C169.92 564.347 168.877 564.709 168.071 565.443C167.285 566.158 166.887 567.285 166.874 568.825L166.814 576.444L162.134 576.41ZM195.765 560.277C197.045 560.287 198.173 560.555 199.149 561.082C200.145 561.589 200.918 562.375 201.47 563.439C202.042 564.483 202.321 565.826 202.308 567.466L202.235 576.705L197.556 576.671L197.623 568.151C197.633 566.851 197.371 565.889 196.835 565.265C196.3 564.641 195.543 564.326 194.563 564.318C193.883 564.313 193.272 564.469 192.729 564.785C192.187 565.081 191.763 565.538 191.458 566.156C191.153 566.773 190.997 567.562 190.99 568.522L190.926 576.622L186.246 576.588L186.313 568.068C186.323 566.768 186.061 565.806 185.526 565.182C185.011 564.558 184.263 564.243 183.283 564.235C182.603 564.23 181.992 564.386 181.449 564.702C180.907 564.998 180.483 565.455 180.179 566.073C179.874 566.69 179.717 567.479 179.71 568.439L179.646 576.539L174.966 576.504L175.093 560.365L179.563 560.398L179.529 564.808L178.699 563.512C179.267 562.416 180.064 561.592 181.088 561.039C182.133 560.467 183.315 560.185 184.635 560.195C186.115 560.206 187.402 560.596 188.496 561.364C189.61 562.112 190.341 563.257 190.689 564.8L189.043 564.338C189.592 563.082 190.46 562.088 191.646 561.357C192.852 560.626 194.225 560.266 195.765 560.277ZM216.33 576.809L216.355 573.659L216.06 572.967L216.105 567.327C216.113 566.327 215.809 565.545 215.193 564.98C214.598 564.416 213.67 564.129 212.41 564.12C211.55 564.113 210.699 564.247 209.857 564.521C209.035 564.775 208.332 565.13 207.748 565.586L206.094 562.303C206.979 561.69 208.043 561.218 209.285 560.887C210.528 560.556 211.789 560.395 213.069 560.405C215.529 560.423 217.434 561.017 218.785 562.187C220.136 563.357 220.802 565.172 220.782 567.632L220.71 576.841L216.33 576.809ZM211.408 577.013C210.148 577.003 209.07 576.786 208.173 576.359C207.277 575.912 206.591 575.317 206.117 574.574C205.643 573.83 205.41 572.998 205.417 572.079C205.424 571.119 205.661 570.28 206.127 569.564C206.612 568.847 207.367 568.293 208.39 567.9C209.413 567.488 210.745 567.288 212.385 567.3L216.675 567.331L216.653 570.061L212.873 570.033C211.773 570.025 211.012 570.2 210.589 570.557C210.186 570.914 209.983 571.362 209.978 571.902C209.974 572.502 210.2 572.984 210.657 573.347C211.134 573.691 211.783 573.865 212.603 573.871C213.383 573.877 214.084 573.702 214.707 573.347C215.33 572.972 215.784 572.425 216.07 571.707L216.773 573.872C216.425 574.91 215.799 575.695 214.894 576.228C213.99 576.762 212.828 577.023 211.408 577.013ZM234.884 560.565C236.164 560.575 237.302 560.843 238.298 561.37C239.314 561.878 240.108 562.664 240.679 563.728C241.251 564.772 241.531 566.114 241.518 567.754L241.445 576.994L236.765 576.959L236.832 568.44C236.842 567.14 236.56 566.178 235.985 565.553C235.43 564.929 234.632 564.613 233.592 564.606C232.852 564.6 232.181 564.755 231.579 565.071C230.996 565.367 230.532 565.833 230.187 566.471C229.862 567.108 229.696 567.927 229.688 568.927L229.625 576.907L224.945 576.872L225.073 560.733L229.542 560.766L229.507 565.236L228.678 563.88C229.266 562.804 230.103 561.98 231.187 561.408C232.272 560.836 233.504 560.555 234.884 560.565ZM253.602 577.323C251.862 577.311 250.315 576.949 248.96 576.239C247.606 575.509 246.544 574.511 245.774 573.246C245.024 571.98 244.655 570.547 244.668 568.947C244.681 567.327 245.072 565.9 245.842 564.666C246.631 563.412 247.709 562.44 249.075 561.75C250.44 561.04 251.993 560.691 253.733 560.704C255.433 560.716 256.91 561.087 258.164 561.817C259.419 562.526 260.341 563.543 260.93 564.867L257.285 566.79C256.871 566.027 256.346 565.463 255.708 565.099C255.091 564.734 254.413 564.549 253.673 564.544C252.873 564.538 252.151 564.712 251.509 565.068C250.866 565.423 250.352 565.929 249.967 566.586C249.601 567.244 249.415 568.042 249.408 568.982C249.4 569.922 249.574 570.724 249.929 571.386C250.303 572.049 250.809 572.563 251.447 572.927C252.084 573.292 252.802 573.477 253.602 573.483C254.342 573.489 255.024 573.324 255.646 572.988C256.289 572.633 256.824 572.067 257.25 571.29L260.864 573.297C260.254 574.592 259.316 575.595 258.05 576.306C256.785 576.997 255.302 577.336 253.602 577.323ZM271.331 577.454C269.491 577.44 267.874 577.068 266.48 576.338C265.105 575.608 264.043 574.62 263.293 573.375C262.543 572.109 262.174 570.676 262.187 569.076C262.2 567.456 262.581 566.029 263.331 564.795C264.101 563.54 265.138 562.568 266.444 561.877C267.749 561.167 269.222 560.818 270.862 560.83C272.442 560.842 273.859 561.192 275.114 561.881C276.389 562.551 277.391 563.518 278.121 564.784C278.851 566.029 279.21 567.522 279.196 569.262C279.194 569.442 279.183 569.651 279.161 569.891C279.139 570.111 279.118 570.321 279.096 570.521L265.986 570.424L266.008 567.694L276.658 567.773L274.851 568.57C274.858 567.73 274.694 566.998 274.358 566.376C274.023 565.753 273.557 565.27 272.96 564.926C272.363 564.561 271.664 564.376 270.864 564.37C270.064 564.364 269.353 564.539 268.73 564.894C268.127 565.23 267.653 565.717 267.308 566.354C266.964 566.971 266.788 567.71 266.781 568.57L266.775 569.29C266.768 570.17 266.952 570.951 267.327 571.634C267.722 572.297 268.268 572.811 268.965 573.176C269.682 573.522 270.521 573.698 271.481 573.705C272.341 573.711 273.092 573.587 273.734 573.331C274.396 573.076 274.999 572.691 275.543 572.175L278.011 574.893C277.265 575.728 276.33 576.371 275.206 576.822C274.083 577.254 272.791 577.465 271.331 577.454Z" fill="white"/>
<path d="M19.1342 274.316L212.96 318.637L75.3341 462.136L19.1342 274.316Z" fill="#BC97FF" stroke="#BC97FF" stroke-width="5"/>
<path d="M74.8497 345.78L84.6973 347.932L83.8647 351.742L74.0171 349.59L74.8497 345.78ZM72.7355 357.14L67.9876 356.103L72.4711 335.587L87.9752 338.975L87.1425 342.785L76.3864 340.435L72.7355 357.14ZM93.4632 361.916C91.7828 361.549 90.365 360.87 89.2096 359.881C88.0737 358.895 87.2572 357.714 86.7599 356.336C86.2864 354.943 86.2205 353.465 86.5621 351.901C86.908 350.319 87.5845 349.003 88.5917 347.954C89.6228 346.889 90.8578 346.156 92.2968 345.754C93.7596 345.337 95.3312 345.312 97.0115 345.679C98.6723 346.042 100.08 346.718 101.236 347.708C102.395 348.678 103.214 349.849 103.692 351.223C104.17 352.597 104.233 354.085 103.883 355.687C103.542 357.25 102.865 358.566 101.854 359.635C100.846 360.684 99.6114 361.417 98.1486 361.834C96.6858 362.252 95.124 362.279 93.4632 361.916ZM94.283 358.164C95.045 358.331 95.7673 358.304 96.4499 358.085C97.1324 357.866 97.72 357.472 98.2126 356.904C98.7095 356.317 99.0562 355.574 99.2526 354.675C99.4533 353.756 99.4482 352.937 99.2374 352.215C99.0267 351.493 98.6568 350.89 98.128 350.406C97.5992 349.922 96.9537 349.597 96.1917 349.43C95.4297 349.264 94.7074 349.29 94.0248 349.51C93.3423 349.729 92.7449 350.12 92.2328 350.684C91.7402 351.252 91.3935 351.995 91.1928 352.913C90.9964 353.812 91.0014 354.632 91.208 355.373C91.4383 356.099 91.8179 356.704 92.3467 357.188C92.8756 357.672 93.521 357.998 94.283 358.164ZM111.613 365.882C109.757 365.477 108.413 364.692 107.583 363.527C106.756 362.344 106.548 360.814 106.958 358.938L109.981 345.105L114.553 346.104L111.543 359.879C111.398 360.543 111.461 361.099 111.731 361.547C112.006 361.976 112.446 362.257 113.052 362.389C113.775 362.547 114.433 362.486 115.027 362.206L115.553 365.699C115.011 365.929 114.389 366.059 113.687 366.09C113.008 366.105 112.316 366.036 111.613 365.882ZM105.941 351.93L106.71 348.413L117.642 350.802L116.873 354.319L105.941 351.93ZM124.918 368.79C123.238 368.423 121.82 367.744 120.664 366.755C119.529 365.77 118.712 364.588 118.215 363.21C117.741 361.817 117.675 360.339 118.017 358.776C118.363 357.193 119.039 355.877 120.047 354.828C121.078 353.763 122.313 353.03 123.752 352.628C125.215 352.211 126.786 352.186 128.466 352.553C130.127 352.916 131.535 353.592 132.691 354.582C133.85 355.552 134.669 356.723 135.147 358.097C135.625 359.471 135.688 360.959 135.338 362.561C134.997 364.124 134.32 365.44 133.309 366.509C132.301 367.558 131.066 368.291 129.604 368.708C128.141 369.126 126.579 369.153 124.918 368.79ZM125.738 365.038C126.5 365.205 127.222 365.179 127.905 364.959C128.587 364.74 129.175 364.346 129.668 363.778C130.164 363.191 130.511 362.448 130.707 361.549C130.908 360.631 130.903 359.811 130.692 359.089C130.482 358.367 130.112 357.765 129.583 357.28C129.054 356.796 128.409 356.471 127.647 356.305C126.885 356.138 126.162 356.164 125.48 356.384C124.797 356.603 124.2 356.995 123.688 357.558C123.195 358.126 122.848 358.869 122.648 359.788C122.451 360.686 122.456 361.506 122.663 362.248C122.893 362.973 123.273 363.578 123.802 364.063C124.33 364.547 124.976 364.872 125.738 365.038Z" fill="white"/>
<path d="M337.358 384.019C351.516 425.881 332.648 469.546 295.972 481.949C259.297 494.353 217.799 471.103 203.641 429.241C189.484 387.379 208.352 343.714 245.027 331.31C281.703 318.907 323.201 342.157 337.358 384.019Z" fill="#BC97FF" stroke="#BC97FF" stroke-width="5"/>
<path d="M233.648 417.555C231.968 417.543 230.36 417.31 228.823 416.859C227.287 416.387 226.051 415.788 225.117 415.06L226.795 411.413C227.69 412.06 228.746 412.598 229.962 413.027C231.199 413.437 232.448 413.646 233.708 413.656C234.668 413.663 235.438 413.579 236.02 413.403C236.621 413.208 237.063 412.941 237.346 412.604C237.628 412.266 237.771 411.877 237.775 411.437C237.779 410.877 237.562 410.435 237.125 410.112C236.687 409.768 236.11 409.494 235.391 409.289C234.673 409.063 233.874 408.857 232.996 408.67C232.137 408.464 231.269 408.217 230.391 407.93C229.533 407.644 228.746 407.278 228.03 406.832C227.313 406.387 226.727 405.802 226.273 405.079C225.838 404.356 225.625 403.434 225.634 402.314C225.643 401.114 225.971 400.026 226.619 399.051C227.286 398.056 228.272 397.274 229.577 396.704C230.901 396.114 232.554 395.827 234.534 395.842C235.854 395.852 237.152 396.022 238.43 396.351C239.707 396.661 240.834 397.13 241.809 397.757L240.281 401.436C239.305 400.868 238.329 400.451 237.351 400.183C236.373 399.896 235.414 399.748 234.474 399.741C233.534 399.734 232.763 399.838 232.161 400.054C231.56 400.269 231.128 400.556 230.865 400.914C230.602 401.252 230.469 401.651 230.466 402.111C230.462 402.651 230.678 403.092 231.116 403.436C231.553 403.759 232.131 404.024 232.85 404.229C233.568 404.434 234.356 404.641 235.215 404.847C236.093 405.054 236.962 405.29 237.82 405.557C238.698 405.824 239.495 406.18 240.212 406.625C240.928 407.071 241.504 407.655 241.938 408.378C242.393 409.102 242.616 410.014 242.607 411.114C242.598 412.294 242.26 413.371 241.593 414.346C240.925 415.321 239.929 416.103 238.605 416.693C237.3 417.283 235.648 417.571 233.648 417.555ZM253.349 417.586C251.609 417.572 250.062 417.211 248.707 416.5C247.353 415.77 246.291 414.772 245.52 413.506C244.77 412.24 244.401 410.807 244.413 409.207C244.425 407.587 244.816 406.16 245.586 404.926C246.375 403.672 247.453 402.7 248.818 402.011C250.183 401.301 251.736 400.953 253.476 400.966C255.176 400.979 256.653 401.35 257.908 402.08C259.162 402.789 260.084 403.807 260.674 405.131L257.03 407.053C256.615 406.29 256.09 405.726 255.452 405.361C254.835 404.997 254.157 404.811 253.417 404.806C252.617 404.8 251.895 404.974 251.253 405.329C250.61 405.684 250.096 406.19 249.711 406.848C249.346 407.505 249.16 408.303 249.153 409.243C249.146 410.183 249.319 410.985 249.674 411.647C250.049 412.31 250.555 412.824 251.193 413.189C251.83 413.554 252.549 413.739 253.349 413.745C254.089 413.751 254.77 413.586 255.392 413.251C256.035 412.896 256.569 412.33 256.995 411.553L260.61 413.561C260 414.856 259.063 415.859 257.797 416.569C256.532 417.26 255.049 417.599 253.349 417.586ZM263.275 417.421L263.398 401.282L267.868 401.316L267.834 405.876L267.214 404.551C267.702 403.415 268.479 402.56 269.543 401.989C270.608 401.397 271.9 401.106 273.42 401.118L273.387 405.438C273.187 405.416 273.007 405.405 272.847 405.404C272.687 405.383 272.518 405.371 272.338 405.37C271.058 405.36 270.015 405.722 269.209 406.456C268.424 407.17 268.025 408.297 268.013 409.837L267.955 417.457L263.275 417.421ZM276.107 417.519L276.23 401.379L280.91 401.415L280.787 417.555L276.107 417.519ZM278.587 399.147C277.727 399.141 277.029 398.885 276.493 398.381C275.957 397.877 275.691 397.255 275.697 396.515C275.703 395.775 275.977 395.157 276.521 394.662C277.065 394.166 277.767 393.921 278.627 393.928C279.487 393.934 280.185 394.179 280.721 394.664C281.258 395.128 281.523 395.73 281.518 396.47C281.512 397.25 281.237 397.898 280.693 398.413C280.169 398.909 279.467 399.154 278.587 399.147ZM291.728 417.878C289.828 417.864 288.352 417.372 287.299 416.404C286.247 415.416 285.728 413.962 285.743 412.042L285.85 397.883L290.53 397.918L290.423 412.018C290.418 412.698 290.594 413.229 290.951 413.612C291.308 413.975 291.797 414.158 292.417 414.163C293.157 414.169 293.788 413.974 294.311 413.578L295.546 416.887C295.063 417.223 294.481 417.479 293.8 417.654C293.139 417.809 292.448 417.884 291.728 417.878ZM283.303 405.393L283.331 401.794L294.52 401.879L294.493 405.479L283.303 405.393ZM304.413 417.975C302.513 417.96 301.037 417.469 299.985 416.501C298.932 415.513 298.413 414.059 298.428 412.139L298.536 397.979L303.215 398.015L303.108 412.115C303.103 412.795 303.279 413.326 303.636 413.709C303.993 414.071 304.482 414.255 305.102 414.26C305.842 414.265 306.473 414.07 306.996 413.674L308.231 416.984C307.749 417.32 307.167 417.576 306.485 417.75C305.824 417.905 305.133 417.98 304.413 417.975ZM295.988 405.49L296.016 401.89L307.205 401.976L307.178 405.575L295.988 405.49ZM310.852 417.784L310.975 401.644L315.655 401.68L315.532 417.819L310.852 417.784ZM313.332 399.412C312.472 399.406 311.774 399.15 311.238 398.646C310.702 398.142 310.437 397.52 310.442 396.78C310.448 396.04 310.723 395.422 311.266 394.926C311.81 394.43 312.512 394.186 313.372 394.192C314.232 394.199 314.93 394.444 315.466 394.928C316.003 395.392 316.268 395.994 316.263 396.734C316.257 397.514 315.982 398.162 315.438 398.678C314.914 399.174 314.212 399.419 313.332 399.412Z" fill="white"/>
</svg>
