<?xml version="1.0" encoding="UTF-8"?>
<svg id="Livello_1" data-name="Livello 1" xmlns="http://www.w3.org/2000/svg" viewBox="0 0 595.28 841.89">
  <defs>
    <style>
      .cls-1 {
        fill: none;
        stroke: #BC97FF;
        stroke-linecap: round;
        stroke-linejoin: round;
        stroke-width: 20px;
      }
    </style>
  </defs>
  <path class="cls-1" d="m181.43,340.29c-7.01,2.25-13.37,5.89-19.76,9.41-10.36,5.71-20.21,12.24-28.42,20.83-7.41,7.75-14.53,15.8-21.53,23.92-8.47,9.82-17.02,19.61-24.92,29.88-8.06,10.48-16.34,20.91-21.59,33.25-1.78,4.2-3.57,8.43-3.14,13.18"/>
  <path class="cls-1" d="m434.04,396.15c-2.7.49-2.62,3.17-3.85,4.83-2.78,3.78-5.73,7.45-8.64,11.13-15.32,19.32-30.44,38.81-46.79,57.3-14.12,15.96-28.99,31.14-44.77,45.46-4.21,3.82-8.58,7.67-13.67,9.79-5.31,2.21-10.47,4.81-15.87,6.82-4.97,1.85-10.04,3.5-14.87,5.66-1.62.72-3.86-.05-4.91,1.97"/>
  <path class="cls-1" d="m452.09,278.52c8.43-2.54,16.4-6.31,24.63-9.39,9.29-3.48,18.48-7.24,27.78-10.7,5.48-2.04,11.12-3.67,16.63-5.62,2.27-.8,2.65.13,2.83,2.11.4,4.63-2.57,7.82-4.54,11.46-2.2,4.05-4.99,7.77-6.6,12.14"/>
  <path class="cls-1" d="m511.42,279.21c.07,2.56-2.04,3.98-3.17,5.87-5.44,9.04-11.3,17.85-16.8,26.84-9.47,15.5-20.68,29.59-31.93,43.75-3.06,3.85-5.72,8.2-8.96,11.9-2.65,3.02-6.12,5.45-9.29,8.03-12.12,9.82-24.16,19.65-34.71,31.24-6.55,7.19-13.44,14.13-21.12,20.16-5.97,4.69-11.27,10.39-18.08,13.79-6.55,3.26-11.3,8.84-17.63,12.27-7.65,4.14-15.22,8.41-22.92,12.45-4.53,2.38-9.22,4.45-13.87,6.61-1.22.57-2.54.94-3.81,1.4"/>
  <path class="cls-1" d="m342.09,321.2c18.93,12.27,31.37,29.28,37.53,50.99,1.91,6.73,3.17,13.5,3.45,20.49.07,1.65-.32,3.1-1.07,4.51"/>
  <path class="cls-1" d="m116.2,530.09c.16,2.77,2.5,4.11,4.23,5.46,6.14,4.78,12.9,8.5,20.39,10.88,6.96,2.21,14.21,2.46,21.13,1.39,4.1-.63,8.41-1.67,12.52-2.89,1.64-.49,3.07-.56,4.53.09,3.66,1.65,7.55,1.85,11.46,2.07"/>
  <path class="cls-1" d="m468.4,325.36c-8.19,8.33-14.63,18.06-21.44,27.46-5.68,7.83-11.69,15.35-19.23,21.37-5.39,4.3-8.47,4.36-11.74-2.33-.14-.28-.45-.47-.68-.7"/>
  <path class="cls-1" d="m342.78,425.65c-5.34,15.25-15.25,27.02-28.13,36.4-5.33,3.88-10.78,7.65-16.98,10.1-1.26.5-2.54.93-3.81,1.39"/>
  <path class="cls-1" d="m494.77,319.12c.28-3.43,2.75-5.85,4.3-8.6,3.26-5.79,6.56-11.52,8.91-17.76,1.06-2.81,3.86-3.37,6.21-4.54,5.45-2.7,11.05-4.96,17.01-6.22"/>
  <path class="cls-1" d="m211.27,447.16c.04,1.52,1.18,2.54,1.73,3.82,4.37,10.04,11.54,17.39,21.15,22.59,7.84,4.24,16.13,6.68,25,7.25,2.08.13,4.16.23,6.25.35"/>
  <path class="cls-1" d="m389.63,298.65c4.54.28,8.62-1.65,12.82-2.84,6.08-1.72,12-4.01,18.07-5.8,7.32-2.15,14.48-4.7,21.51-7.65.73-.31,1.61-.26,2.42-.37"/>
  <path class="cls-1" d="m346.25,408.3c.52,1.39.4,2.74.02,4.17-1,3.8-2.93,7.73-2.56,11.42.61,6.02-1.43,11.78-.66,17.73.4,3.07.14,6.24.04,9.36-.05,1.74.24,3.34,1.07,4.86"/>
  <path class="cls-1" d="m107.52,517.25c1.99,5.48,5.34,9.71,10.35,12.93,3.98,2.57,7.65,5.6,11.83,7.93,5.27,2.93,10.85,4.75,16.65,6.33,5.67,1.55,11.41.64,17.04,1.6"/>
  <path class="cls-1" d="m502.75,317.38c-2.65.12-4.8,2.16-7.64,1.81-1.52-.19-2.69,1.2-3.42,2.38-8.83,14.15-20.34,26.02-31.97,37.8-.76.77-1.44,1.75-2.77,1.39"/>
  <path class="cls-1" d="m236.95,548.83c-3.76-2.08-7.63-.47-11.45-.33-6.6.23-13.17.74-19.79-.26-4.32-.65-8.78-.33-13.17-.45"/>
  <path class="cls-1" d="m379.91,406.21c-.56,7.98-4.26,14.88-7.67,21.84-1.98,4.05-4.54,7.76-7.55,11.16-.82.93-1.94,1.9-1.78,3.43"/>
  <path class="cls-1" d="m455.9,372.21c-1.12,4.31-4.62,6.53-8.01,8.62-4.49,2.77-9.25,5.08-13.83,7.71-3.1,1.78-5.3,4.45-6.98,7.6-.54,1.01-.32,1.86.06,2.88,1.14-.38,2.29-.76,3.43-1.13"/>
  <path class="cls-1" d="m221.34,326.75c5.2-1.27,10.37-2.77,15.63-3.76,6.2-1.16,12.32-2.98,18.73-2.84"/>
  <path class="cls-1" d="m180.74,585.26c-.14,1.54.5,1.49,1.75,1.08,3.43-1.15,6.9-2.22,10.41-3.13,3.41-.88,6.5-2.32,10.42-2.1,3.26.19,6.88-1.88,10.39-2.78.33-.08.69-.01,1.04-.01"/>
  <path class="cls-1" d="m173.11,579.71c6.55-1.21,13.21-1.04,19.84-2.48,8.94-1.95,17.27-5.86,26.31-7.24"/>
  <path class="cls-1" d="m532.59,280.95c3.27.23,6.22-1.28,9.35-1.83,7.49-1.33,14.93-2.67,22.57-1.64"/>
  <path class="cls-1" d="m566.6,277.13c-.46,0-1.27-.14-1.34.02-1.54,3.73-4.99,5.72-7.75,8.24-6.41,5.87-13.85,10.43-20.78,15.65-.3.22-.9.03-1.37.03"/>
  <path class="cls-1" d="m291.43,558.89c-.23,4.76-2.5,8.91-4.26,13.15-1.98,4.77-4.31,9.44-7.5,13.6-.63.82-1.1,1.77-2.13,2.02-1.05.26-2.41.23-2.02-1.34.72-2.88.23-6.42,3.76-7.99"/>
  <path class="cls-1" d="m241.81,546.4c4.88.98,9.61.25,14.22-1.4,4.4-1.57,9.01-2.16,13.54-3.1,3.3-.69,6.74-.67,9.89-2.09"/>
  <path class="cls-1" d="m218.91,327.79c-2.98-.74-5.67.82-8.28,1.56-6.85,1.93-13.46,4.7-20.18,7.1-.65.23-1.38.25-2.08.36"/>
  <path class="cls-1" d="m333.07,354.86c2.32,9.32,5.85,18.26,8.6,27.43.33,1.11.95,2.52.07,3.8"/>
  <path class="cls-1" d="m403.16,396.85c-5.47,9.45-11.6,18.44-18.74,26.72-1.24,1.44-3.46,2.32-2.78,4.86"/>
  <path class="cls-1" d="m201.21,431.2c.39,4.39,2.46,8.22,4.21,12.13,2.14,4.77,5.13,9.04,8.24,13.24.79,1.07,1.51,1.75,2.82,1.7"/>
  <path class="cls-1" d="m200.86,411.77c1.39,9.71,4.04,19.11,6.94,28.45"/>
  <path class="cls-1" d="m313.98,547.79c-.41,6.95-3.94,12.76-6.97,18.72-1.66,3.26-3.83,6.24-6.57,9.4,5.1,4.66,11.45,7.89,15.63,13.52"/>
  <path class="cls-1" d="m394.49,298.65c1.79,2.33,4.66,3.24,6.69,5.46,5.85,6.39,8.21,14.03,9.27,22.3"/>
  <path class="cls-1" d="m347.99,379.15c1.24,9.25,1.05,18.51,0,27.76"/>
  <path class="cls-1" d="m62.07,479.78c-.44,6.8,2.79,12.41,5.92,18.03,1.42,2.55,2.86,5.11,4.85,7.29,1.25,1.37,1.02,2.84.74,4.52-.92,5.54.2,10.84,2.27,16.22,3.65-1.75,5.41-4.98,7.34-7.94.8-1.24,1.07-2.79,2.84-3.08"/>
  <path class="cls-1" d="m383.38,394.76c.7.39,1.43.86,1.37,1.73-.38,5.09.76,10.21-.91,15.31-.77,2.33-.34,5.05-.46,7.6"/>
  <path class="cls-1" d="m88.09,492.27c-1.29,2.73-1.23,5.71-.23,8.28,1.34,3.48.09,6.73-.72,9.69-.62,2.26-.73,4.2-.41,6.32.34,2.28,1.05,4.11-2.01,5.72-3.64,1.91-5.11,10.39-3.18,14.74,1.37,3.09,2.07,6.57,5.12,8.76.59.42.51,1.78.75,2.7"/>
  <path class="cls-1" d="m413.57,371.86c-2.34,8.23-5.29,16.22-9.7,23.61-.15.26-.02.68-.02,1.03"/>
  <path class="cls-1" d="m510.38,313.91c7.95-2.45,15.09-6.58,22.18-10.81.73-.43,1.33-.69,2.11-.64"/>
  <path class="cls-1" d="m182.82,590.12c3.43-1.43,6.97-.61,10.4-.26,4.79.49,9.18-1.83,13.89-1.47"/>
  <path class="cls-1" d="m334.11,356.94c1.43-.41,2.29.49,3.12,1.39,5.11,5.56,8.63,11.96,10.07,19.43"/>
  <path class="cls-1" d="m107.87,521.76c-8.88,2.74-14.69,8.62-17.7,17.35"/>
  <path class="cls-1" d="m366.03,303.85c4.19.14,8.08-1.48,12.14-2.09,3.39-.51,6.59-1.94,10.06-2.07"/>
  <path class="cls-1" d="m316.07,525.58c-.15,2.67.91,5.17.52,8-.5,3.69-.32,7.46-1.51,11.1-.23.7.18,1.6.3,2.41"/>
  <path class="cls-1" d="m469.78,323.98c5.54-5.13,11.5-9.6,18.71-12.21.88-.32,1.41-.02,2.11.07"/>
  <path class="cls-1" d="m86.36,522.11c.63,3.44,1.07,6.9,1.04,10.41-.02,2.37-.09,4.78,1.07,6.92.68,1.25,0,2.33-.03,3.49"/>
  <path class="cls-1" d="m233.14,567.22c1.04,1.08,1.13,2.42,1.04,3.82-.36,5.43.77,10.92-.69,16.31-.28,1.04.34,1.88.69,2.77"/>
  <path class="cls-1" d="m292.47,313.91c6.53.21,12.89-1.8,19.43-1.39"/>
  <path class="cls-1" d="m411.14,328.49c.95,5.63-.39,11.36.94,17.03.62,2.65-1.22,5.48-.25,8.3.9,2.61.68,5.5,2.08,7.98"/>
  <path class="cls-1" d="m236.61,597.06c3.47-2.38,7.61-3.07,11.46-4.48,2.37-.86,4.85-1.42,7.28-2.11"/>
  <path class="cls-1" d="m226.54,579.36c-4.57,5.92-11.01,7.62-18.04,7.98"/>
  <path class="cls-1" d="m241.12,590.12c4.74-.69,9.66-2.49,14.18-1.79,5,.78,9.52-.88,14.27-.64,1.87.09,3.63-1.41,5.55-.35"/>
  <path class="cls-1" d="m276.86,588.39c-.76.72-.14,1.63-.38,2.47,3.11,1.17,5.83-.62,9.44-1.33-.03,4.24-2.41,7.17-4.2,10.31"/>
  <path class="cls-1" d="m313.98,311.14c2.2.84,4.49.49,6.57-.08,3.56-.97,7.2-.78,10.78-1.31"/>
  <path class="cls-1" d="m291.08,314.61c-5.78.69-11.57,1.39-17.35,2.08"/>
  <path class="cls-1" d="m216.13,540.15c6.26.47,11.93,2.55,17,6.25"/>
  <path class="cls-1" d="m343.13,387.48c.25,5.57,1.79,11.03,1.39,16.66"/>
  <path class="cls-1" d="m332.72,309.06c5.4.16,10.56-1.93,15.96-1.73"/>
  <path class="cls-1" d="m398.65,311.14c1.13,4.87,3.75,9.1,5.89,13.54.37.76,1.05,1.45.7,2.42"/>
  <path class="cls-1" d="m220.3,571.04c-.42-.37-1.04-.86-.67-1.37,4.16-5.61,8.17-11.37,13.85-15.64"/>
  <path class="cls-1" d="m257.08,318.77c1.85.94,3.95.49,5.5-.13,3.23-1.28,6.57-.49,9.77-1.26"/>
  <path class="cls-1" d="m240.77,553.34c-.23-.35-.62-.67-.67-1.04-.23-1.68-.53-3.4-2.79-2.73-2.08.62-4.01,2.26-3.38,4.44,2.4,8.29-1.6,13.7-7.56,18.42"/>
  <path class="cls-1" d="m266.1,481.51c4.83,1.37,9.71.64,14.57.35"/>
  <path class="cls-1" d="m90.17,487.06c-3.18-2.2-.56-4.54.12-6.55.7-2.07,2.48-3.86,5.07-3.1,1.93.56,3.87,1.53,4.52,3.76,1.01,3.48-.57,7.15-3.8,9.02-.58.34-1.27.59-1.71,1.06-1.15,1.24-2.36,1.69-3.84.67-1.93-1.34-.67-3.02-.29-4.49.21-.79,1.09-1.41,1.67-2.1"/>
  <path class="cls-1" d="m261.94,584.92c3.76-.3,7-2.16,10.38-3.53,1.3-.53,2.53-.6,3.84-.63"/>
  <path class="cls-1" d="m200.86,539.46c4.63-.38,9.25-.6,13.88,0"/>
  <path class="cls-1" d="m350.77,306.28c4.7.27,9.19-1.57,13.88-1.39"/>
  <path class="cls-1" d="m202.6,582.49c-3.7,1.5-7.4,3.02-11.11,4.5-.88.35-1.85.52-2.42,1.4"/>
  <path class="cls-1" d="m304.96,586.3c-2.57,3.53-5.65,6.59-8.58,9.8-.96,1.06-1.71,1.31-2.87,1.3"/>
  <path class="cls-1" d="m243.2,597.75c4.48.1,8.69-1.95,13.19-1.73"/>
  <path class="cls-1" d="m186.29,541.89c4.5.21,8.67-2.04,13.19-1.73"/>
  <path class="cls-1" d="m198.78,418.01c-.4,4.41.91,8.59,1.73,12.84"/>
  <path class="cls-1" d="m293.86,545.71c.18,4.38-1.11,8.56-1.73,12.84"/>
  <path class="cls-1" d="m229.32,599.84c4.06-1.44,8.28-1.39,12.49-1.39"/>
  <path class="cls-1" d="m224.81,570.34c1.99,1.03,2.19,3.57,2.21,4.86.06,5.23,3.33,8.49,6.12,12.14"/>
  <path class="cls-1" d="m258.47,594.98c4.01.23,7.78-1.67,11.8-1.39"/>
  <path class="cls-1" d="m297.68,589.08c-3.71,4.86-8.65,8.3-13.59,11.71-.44.3-2.14,2.65-2.72-.26"/>
  <path class="cls-1" d="m282.06,481.16c2.57-.31,5.18-.23,7.67-1.31.94-.41,2.28-.91,3.44-.08"/>
  <path class="cls-1" d="m198.78,404.48c-2.18,3.36-.33,7.25-1.39,10.76"/>
  <path class="cls-1" d="m266.1,480.82c3.1-1.67,6.38-1.56,9.72-1.04"/>
  <path class="cls-1" d="m249.44,547.09c.04.89-.35,1.85-1.06,2.03-3.21.79-5.04,3.73-7.97,4.91"/>
  <path class="cls-1" d="m305.66,585.96c2.72,2.24,5.24,5.03,9.37,3.47"/>
  <path class="cls-1" d="m277.2,478.39c3.14.42,5.96-1.31,9.02-1.39"/>
  <path class="cls-1" d="m289,540.15c-2.99.49-6,.49-9.02.35"/>
  <path class="cls-1" d="m180.05,586.3c-3.01,1.62-6.01,3.24-9.02,4.86"/>
  <path class="cls-1" d="m414.96,355.55c-.03,5.09-1.52,10.15-.35,15.27"/>
  <path class="cls-1" d="m405.94,327.45c1.41,2.77,2.05,5.92,4.16,8.33"/>
  <path class="cls-1" d="m198.78,396.5c-.69,4.74,1.02,9.24,1.39,13.88"/>
  <path class="cls-1" d="m74.21,508.23c1.83.88,2.31,2.99,4.01,4.27,2.34-1.8,4.94-2.69,7.78-.8"/>
  <path class="cls-1" d="m90.87,492.62c-.53,2.17-1.2,4.32-1.04,6.59"/>
  <path class="cls-1" d="m450.7,368.04c1.99.87,3.78.16,5.63-1.45.79,2.21.83,3.72.27,5.27"/>
  <path class="cls-1" d="m179,543.97c1.76-1.54,3.9-.9,5.9-1.04"/>
  <path class="cls-1" d="m257.08,588.04c.55-2.58,3.32-1.03,4.51-2.43"/>
  <path class="cls-1" d="m186.64,581.1c-1.53,1.67-3.8,2.16-5.55,3.47"/>
  <path class="cls-1" d="m88.79,543.62c1,1.72.87,3.71,1.39,5.55"/>
  <path class="cls-1" d="m412.53,347.57c1.78,1.48.57,3.89,1.73,5.55"/>
  <path class="cls-1" d="m281.02,601.57c-1.5,1.52-3.01,3-5.2,3.47"/>
  <path class="cls-1" d="m82.19,507.54h5.2"/>
  <path class="cls-1" d="m299.41,535.3c-2.68,2.1-5.32,4.27-9.02,4.16"/>
  <path class="cls-1" d="m96.42,485.33c.58,1.82-1.85,2.99-1.04,4.86"/>
  <path class="cls-1" d="m293.16,594.63c1.48,3.68-2.14,4.94-3.47,7.29"/>
  <path class="cls-1" d="m73.52,505.11c.92-.76,1.52-2.37,3.17-.74,1,1,2.29,1.81,3.77,2.12"/>
  <path class="cls-1" d="m242.85,542.24c-.92,2.61-1.94,5.17-3.82,7.29"/>
  <path class="cls-1" d="m271.65,592.2c1.45.61,2.83.46,4.16-.35"/>
  <path class="cls-1" d="m240.08,554.73l-3.12,3.12"/>
  <path class="cls-1" d="m294.9,539.11c-.08,1.28.24,2.59-.35,3.82"/>
</svg>