<?xml version="1.0" encoding="UTF-8"?>
<svg id="Livello_1" data-name="Livello 1" xmlns="http://www.w3.org/2000/svg" viewBox="0 0 595.28 841.89">
  <defs>
    <style>
      .cls-1 {
        fill: none;
        stroke: #bc97ff;
        stroke-linecap: round;
        stroke-linejoin: round;
        stroke-width: 20px;
      }
    </style>
  </defs>
  <path class="cls-1" d="m107.52,250.12c.98,4.31-.19,8.59-.5,12.83-.62,8.33-1.1,16.66-1.53,25-.87,17.11-.46,34.24-.31,51.35.07,8.81.98,17.6,1.86,26.39.63,6.32,1.52,12.61,3.06,18.69,2.25,8.91,5.36,17.58,9.87,25.74,10.58,19.17,24.48,35.93,37.87,53.06,8.47,10.84,18.61,20.01,28.79,29.16,7.91,7.1,12.77,16.13,16.35,26,3.79,10.46,7.82,20.84,11.78,31.24.57,1.5.52,3.51,2.76,3.82"/>
  <path class="cls-1" d="m298.02,513.84c-.9-.34-1.72-.76-2.78-.72-12.83.42-24.45-4.04-35.71-9.4-17.53-8.34-34.6-17.59-51.39-27.34-9.59-5.56-18.85-11.56-26.7-19.46-9.37-9.44-14.2-21.21-16.61-34-2.49-13.22-2.7-26.63-.66-39.88,3.8-24.65,14.08-45.81,34.97-60.71,1.42-1.01,2.62-2.8,4.84-2.11"/>
  <path class="cls-1" d="m416.7,482.26c3.33-1.94,4.06-5.73,4.64-8.72,1.38-7.18.77-14.32-4.22-20.49-1.42-1.76-3.49-2.14-5.07-3.61-2.89-2.68-4.46-6.26-7.4-8.93-5.5-5-12.03-7.81-18.87-9.86-9.19-2.76-17.57-6.91-24.92-12.97-10.83-8.93-19.62-19.76-28.2-30.79-4.72-6.07-9.92-11.81-15.25-17.36-9.12-9.5-18.27-19.02-28.44-27.42-12.59-10.39-25.38-20.53-39.46-28.95-2.87-1.71-5.19-5.17-8.71-4.58-4.4.73-8.86.15-13.26,1.39-2.58.73-5.21,2.15-8.31,1.35-1.79-.46-3.32,1.68-5.1,2.45-3.25,1.4-6.91,3.17-8.88,5.89-2.4,3.32-5.38,6.03-7.88,9.19-6.13,7.76-10.12,16.55-12.37,26.07-1.18,4.97-1.51,10.15-2.16,15.25-1.71,13.48-3.36,26.98-2.74,40.6.97,21.47,7.88,40.3,24.56,54.87,12.2,10.64,26.17,17.84,41.29,23.32,7.13,2.59,14.34,4.88,21.57,7.12,9.3,2.89,18.81,5.12,28.05,8.16,4,1.31,8.19,2.43,11.84,4.74"/>
  <path class="cls-1" d="m90.52,218.55c-1.79-3.24-.47-6.57.1-9.7,1.37-7.52,4.42-14.35,9.6-20.16,10.14-11.35,27.1-16.14,42.06-7.36,11.47,6.73,18.59,16.96,24.53,28.23,6.28,11.91,11.94,24.15,19.48,35.37,4.85,7.21,9.95,14.24,15.64,20.8,13.1,15.13,27.99,28.24,44.72,39.26,1.63,1.07,3.99,1.37,4.53,3.78"/>
  <path class="cls-1" d="m250.49,565.54c-1.87-2.51-1.27-4.28,2.09-5.17,5.56-1.48,11.29-1.64,16.99-1.39,8.09.34,16.03,1.99,23.91,3.59,6.14,1.25,12.25,2.8,18.42,4,5.27,1.03,10.55,1.83,15.94,2.28,5.11.43,10.21.68,15.28.42,10.71-.54,21.36-1.76,31.94-3.66,8.66-1.56,17.27-3.44,25.99-4.71,3.23-.47,6.68-.41,9.73-1.96"/>
  <path class="cls-1" d="m419.82,559.64c3.43,2.71,7.75,3.68,11.48,5.85,9.73,5.66,18.67,12.44,27.34,19.53,14.09,11.52,29.44,21.03,45.52,29.4,8.44,4.4,17.13,8.31,25.63,12.58,1.7.85,3.3,1.68,5.55,1.7.33-6.97-2.67-12.62-6.94-17.68-4.99-5.92-11.57-9.9-18.41-13.1-10.22-4.79-19.14-11.33-27.71-18.49-3.92-3.28-7.59-6.89-12.13-9.4-.73-.4-1.25-1.15-1.4-2.06"/>
  <path class="cls-1" d="m417.04,483.3c4.05,3.93,8.1,7.86,12.14,11.8,14.34,13.95,29.73,26.63,45.79,38.54,13.79,10.23,28.35,19.25,43.03,28.12,2.89,1.75,5.27,4.18,7.31,6.9.71.94,1.27,1.89.97,3.27-6.07.62-12.21.15-18.33-.19-6.14-.34-12.28-.98-18.39-1.72-5.11-.62-10.16-2.08-15.28-2.27-7.4-.28-13.89-3.56-20.8-5.39-8.36-2.22-16.73-4.24-25.35-5.14"/>
  <path class="cls-1" d="m338.97,526.5c1.9.92,3.77.91,5.91.63,4.38-.56,8.6,1,12.82,1.99,11.23,2.63,21.36,8.13,31.94,12.45,11.76,4.8,23.52,9.63,35.75,13.16,1.15.33,1.77.97,2.41,1.79"/>
  <path class="cls-1" d="m343.48,528.07c9.37,9.14,20.22,16.33,32.02,21.64,6.59,2.97,14.04,4.21,21.39,5.24,4.66.65,9.62.77,13.9,3.31"/>
  <path class="cls-1" d="m220.64,587.23c1.83-1.03,1.92-3.01,2.4-4.69,2.15-7.5,4.1-15.06,6.33-22.53.74-2.49,1.97-4.91,4.12-6.59,1.55-1.21,3.09-2.02,5.23-.78,1.9,1.1,3.09,2.31,3.1,4.58,0,3.65-.11,7.2-1.34,10.78-5.77,16.7-11.69,33.34-20.29,48.85-1.22,2.21-.57,5.54-3.71,6.65"/>
  <path class="cls-1" d="m250.49,582.2c-.73-5.44-.13-10.87,0-16.31,1.97-1.46,4.79.35,6.44-1.96,4.17,6.21,4.94,41.18,1.1,47.58-2.57-8.96-5.3-17.73-6.51-26.88-.08-.6-.44-1.16-.67-1.74"/>
  <path class="cls-1" d="m350.77,472.55c.73,1.26.01,2.1-.66,3.14-6.62,10.36-14.19,19.83-24.3,27.07-3.74,2.68-7.87,4.63-11.82,6.91"/>
  <path class="cls-1" d="m362.56,452.77c-3.59,6.01-6.65,12.44-10.95,17.89-2.62,3.32-5.9,6.32-8.85,9.5-9.3,10.04-19.55,19.02-30.92,26.65-.83.55-1.41,1.15-2.02,1.83"/>
  <path class="cls-1" d="m344.17,519.04c-.78-2.11-2.27-1-3.46-.66-1.16.34-2.32.72-3.45,1.09-7.25,2.33-14.72,3.01-22.23,3.8-6.56.69-12.97-.33-19.44-.72-3.6-.21-6.79-2.16-10.41-2.13"/>
  <path class="cls-1" d="m210.58,590.87c-1.18-.75-2.49-.68-3.82-.71-3.57-.07-5.84-2.51-5.17-5.88,1.62-8.2,6.3-14.23,13.48-18.43,1.17-.69,2.1.3,3.14.03"/>
  <path class="cls-1" d="m288.31,520.43c.89-1.46,2.33-2.06,3.79-2.83,5.07-2.69,10.31-4.94,15.58-7.21,2.18-.93,4.33-.55,5.51.15,3.86,2.28,8.13,3.7,11.89,6.09,1.77,1.12,4.05,1.67,4.87,3.97"/>
  <path class="cls-1" d="m413.57,451.38c.96,4.56,3.28,8.87,3.34,13.53.05,3.72,1.5,7.79-1.84,11.21-.87.89-.66,3.18-.39,4.73.38,2.2-.47,3.81-1.83,5.2-4.3,4.38-9.48,6.97-15.57,8.11-2.89.54-5.76,1.31-8.7,1.59-1.77.17-3.69.45-5.2-1"/>
  <path class="cls-1" d="m390.67,448.6c7.52,4.03,14.83,8.23,19.85,15.57,2.37,3.46,3.02,7.33,4.09,11.15"/>
  <path class="cls-1" d="m240.08,602.67c-5.33,6.93-10.83,13.67-18.34,18.48-1.11.71-2.03.93-3.18.96"/>
  <path class="cls-1" d="m218.22,569.01c-2.28,3.61-2.65,7.89-3.64,11.84-1.98,7.95-5.61,15.14-8.93,22.48-1.91,4.23-4.55,8.13-6.87,12.18"/>
  <path class="cls-1" d="m256.04,612.38c-1.27.47-2.54.95-3.81,1.42,2.98,9.31-2.78,20.99-11.1,20.41,2.88-5.62,3.59-11.77,5.21-17.67.43-1.56.65-2.83-.66-4.22-1.27-1.35-1.24-3.41-1.81-5.15-.61-1.87-.55-4.22-3.11-4.86"/>
  <path class="cls-1" d="m214.75,529.45c1.8,6.95,3.22,14.04,3.3,21.17.05,5.33,1.65,10.61.54,15.96-.11.54-.13,1.45.18,1.68,3.52,2.6,1.83,6.33,1.67,9.4-.13,2.35-.34,4.94-1.18,7.3"/>
  <path class="cls-1" d="m257.08,611.69c6.1.56,11.57,2.25,14.93,7.98,1.45,2.48,1.77,5.29,2.36,8,.19.88-.09,2.15-1.67,1.72"/>
  <path class="cls-1" d="m86.7,231.73c3.81.6,5.45-.59,5.54-4.16.18-7.1.31-8.32,8.68-8.46,5.62-.1,7.34,3.35,9.02,7.42"/>
  <path class="cls-1" d="m219.6,311.02c3.08-4.1,7.84-5.81,12.24-7.56,2.16-.86,4.92,1.6,6.83,3.58.37.38,1.16.41,1.05,1.2"/>
  <path class="cls-1" d="m250.14,582.89c-1.05,3.63-1.02,7.39-1.35,11.11-.24,2.74-.44,5.44-1.6,7.98"/>
  <path class="cls-1" d="m126.26,210.91c-.78-.65-1.38-1.92-1.03-2.42,1.83-2.62,4.17-4.65,7.28-5.53,1.41-.4,2.76.19,3.06,1.71.25,1.27,1.21,2.41.75,3.81"/>
  <path class="cls-1" d="m258.81,612.38c-.52,1.85.87,3.23,1.82,4.07,4.26,3.8,7.39,8.57,11.37,12.58"/>
  <path class="cls-1" d="m89.13,232.43c-1.27,4.86-2.59,9.7-3.78,14.58-.25,1.02-.26,2.23.66,3.11.06.06.25.05.33,0,.14-.08.24-.22.35-.34"/>
  <path class="cls-1" d="m392.06,448.6c4-3.67,8.79-3.05,13.53-2.38,1.05.15,1.99,1.04,3.13.3"/>
  <path class="cls-1" d="m389.63,484.69c-2.84,5.02-5.69,10.07-11.11,12.82-2.59,1.31-4.81,3.2-7.54,4.37-1.35.58-2.86,1.94-4.09,3.47-2.43,3.02-5.94,5.23-10.21,5.36"/>
  <path class="cls-1" d="m91.91,230.69c2.51,3.19,6.22,1.88,9.38,2.33,3.87.54,6.45-1.71,8.42-5.04.76-1.29,2.73-1.84,4.05-2.85,3.74-2.86,7.64-5.43,11.81-7.62"/>
  <path class="cls-1" d="m126.96,210.57c2.53-2.76,5.89-2.02,9.02-2.04,1.23,0,2.55,3.51,2.08,5.16-1.3,4.64-7.38,6.85-11.45,4.16"/>
  <path class="cls-1" d="m367.08,504.12c-2.57-1.01-4.18,1.08-5.84,2.17-4.91,3.22-8.91,7.72-14.28,10.33-.93.45-1.85.92-2.78,1.39"/>
  <path class="cls-1" d="m213.36,587.75c2.46.55,3.16-1.98,4.71-2.88,1.76.35,2.45,1.6,2.17,2.87-.83,3.68-.64,7.55-2.02,11.12"/>
  <path class="cls-1" d="m103.71,239.71c-2.08-1.79-3.92.47-6.56.13,1.72,2.7-3.54,4.88.5,7.57,1.32-.49,2.52-1.94,4.32-1.46"/>
  <path class="cls-1" d="m97.11,240.41c-4.24,1.93-6.49,6-9.72,9.02"/>
  <path class="cls-1" d="m127.3,216.12c3.32-1.69,6.21-4.27,10.06-4.86"/>
  <path class="cls-1" d="m105.1,237.98c-2.11,4.8-3.88,9.49-1.88,14.97.77,2.11-.09,4.81-.2,7.23"/>
  <path class="cls-1" d="m411.32,558.25c5.46,1.65,10.8.6,16.14-.69"/>
  <path class="cls-1" d="m251.53,552.35c-.13,2.66-1.5,5.32,0,7.98"/>
  <path class="cls-1" d="m249.1,607.18c1.58-1.43,2.63-.52,3.85.66,1.11,1.08,1.6,2.87,3.44,3.16"/>
  <path class="cls-1" d="m343.83,519.74c-2.09,2.12-4.23,4.16-5.64,6.89-.43.83-1.3,2.53-3.03,1.43"/>
  <path class="cls-1" d="m246.32,309.81c4.4-1.94,8.08.19,11.8,2.08"/>
  <path class="cls-1" d="m242.16,564.15c2.2-.23,4.4-.46,6.59-.69"/>
  <path class="cls-1" d="m241.46,597.12c3.22,2.51,6.27,5.18,7.98,9.02"/>
  <path class="cls-1" d="m101.97,233.82c-.52,2.45-3.86,3.08-3.82,5.9"/>
  <path class="cls-1" d="m250.14,608.57c.81,1.62,1.62,3.24,2.43,4.86"/>
  <path class="cls-1" d="m251.87,614.47c-1.49.42-2.88,1.24-4.51,1.04"/>
  <path class="cls-1" d="m85.66,250.47c-.81,1.39-1.62,2.78-2.43,4.16"/>
  <path class="cls-1" d="m102.67,250.47c1.99.09,3.78-.61,5.55-1.39"/>
  <path class="cls-1" d="m333.76,521.47c1.27,1.16,2.54,2.31,3.82,3.47"/>
  <path class="cls-1" d="m248.75,607.87c-1.43,1.07.04,3.1-1.39,4.16"/>
</svg>